<svg xmlns="http://www.w3.org/2000/svg" xmlns:xlink="http://www.w3.org/1999/xlink" width="80.29971135556116" height="79.12367457151413" viewBox="961 1055.6200130581856 80.29971135556116 79.12367457151413"><defs><clipPath id="clip-33f6bb1b"><path d="M 0 -682.6649169921875 L 80.2998046875 -682.6649169921875 L 80.2998046875 -602.3651123046875 L 0 -602.3651123046875 L 0 -682.6649169921875 Z" transform="matrix(1,0,0,1,0,682.6649169921875)" fill="#1fbe54" fill-rule="evenodd"/></clipPath><clipPath id="clip-33f6bb1b"><path d="M 0 -682.6649169921875 L 80.2998046875 -682.6649169921875 L 80.2998046875 -602.3651123046875 L 0 -602.3651123046875 L 0 -682.6649169921875 Z" transform="matrix(1,0,0,1,0,682.6649169921875)" fill="#1fbe54" fill-rule="evenodd"/></clipPath></defs><g transform="matrix(1,0,0,1,961,1737.69677734375)"><g transform="matrix(1,0,0,1,0,-682.6649780273438)"><g clip-path="url(#clip-33f6bb1b)"><g transform="matrix(1,0,0,1,6.702864646911621,53.987403869628906)"><path d="M 23.44438934326172 15.72178745269775 C 8.212626457214355 15.72178745269775 -5.20509147644043 6.003917694091797 -9.943896293640137 -8.459877967834473 C -10.14616012573242 -9.077226638793945 -9.809661865234375 -9.741647720336914 -9.192323684692383 -9.943912506103516 C -8.57497501373291 -10.14617729187012 -7.910553932189941 -9.809678077697754 -7.708288669586182 -9.192339897155762 C -3.286969661712646 4.302443981170654 9.232335090637207 13.3692569732666 23.44438934326172 13.3692569732666 C 37.65644073486328 13.3692569732666 50.17574310302734 4.302443981170654 54.59706115722656 -9.192339897155762 C 54.7993278503418 -9.809676170349121 55.46372222900391 -10.14617919921875 56.08109664916992 -9.943912506103516 C 56.69843673706055 -9.741647720336914 57.03493118286133 -9.077226638793945 56.83266830444336 -8.459888458251953 C 52.09386825561523 6.003917694091797 38.6761474609375 15.72178745269775 23.44438934326172 15.72178745269775 Z" transform="matrix(1,0,0,1,10.002679824829102,10.002696990966797)" fill="#1fbe54" fill-rule="evenodd"/></g><g transform="matrix(1,0,0,1,56.302242279052734,14.204618453979492)"><path d="M 6.116430282592773 10.97416019439697 C 5.621647834777832 10.97416019439697 5.161258697509766 10.65954303741455 4.998838424682617 10.16378784179688 C 2.532790660858154 2.636551141738892 -2.59018349647522 -3.748122692108154 -9.42636775970459 -7.814112186431885 C -9.984711647033691 -8.146199226379395 -10.16812324523926 -8.868033409118652 -9.83603572845459 -9.426370620727539 C -9.503948211669922 -9.984713554382324 -8.782119750976562 -10.16812610626221 -8.223777770996094 -9.836038589477539 C -0.8985798358917236 -5.479196071624756 4.591262817382812 1.363431930541992 7.234451293945312 9.431362152099609 C 7.43670654296875 10.04871273040771 7.100207328796387 10.71312713623047 6.482860565185547 10.91538238525391 C 6.361266136169434 10.95521831512451 6.237783432006836 10.97416019439697 6.116430282592773 10.97416019439697 Z" transform="matrix(1,0,0,1,10.001522064208984,10.001524925231934)" fill="#1fbe54" fill-rule="evenodd"/></g><g transform="matrix(1,0,0,1,6.7028656005859375,17.81642723083496)"><path d="M -8.825875282287598 -120.2518768310547 C -8.947264671325684 -120.2518768310547 -9.070680618286133 -120.2708129882812 -9.19231128692627 -120.310661315918 C -9.809657096862793 -120.5129241943359 -10.14614772796631 -121.1773452758789 -9.943888664245605 -121.7946929931641 C -7.98060131072998 -127.7871322631836 -4.418033599853516 -133.1576995849609 0.3586646914482117 -137.3258056640625 C 0.8481487035751343 -137.7529144287109 1.591198682785034 -137.7023620605469 2.018316984176636 -137.212890625 C 2.445434331893921 -136.7234039306641 2.394880056381226 -135.9803466796875 1.905395030975342 -135.55322265625 C -2.552406072616577 -131.6634063720703 -5.876764297485352 -126.6524963378906 -7.708285331726074 -121.0622482299805 C -7.870695114135742 -120.5665283203125 -8.331137657165527 -120.2518768310547 -8.825875282287598 -120.2518768310547 Z" transform="matrix(1,0,0,1,10.002670288085938,137.6157989501953)" fill="#1fbe54" fill-rule="evenodd"/></g><g transform="matrix(1,0,0,1,-0.0000933319388423115,32.82810974121094)"><path d="M -563.9315185546875 -166.3706665039062 L -633.984130859375 -166.3706665039062 C -636.8093872070312 -166.3706665039062 -639.1077880859375 -168.6690673828125 -639.1077880859375 -171.4941864013672 L -639.1077880859375 -184.7587127685547 C -639.1077880859375 -187.5838165283203 -636.8093872070312 -189.8822174072266 -633.984130859375 -189.8822174072266 L -563.9315185546875 -189.8822174072266 C -561.1063842773438 -189.8822174072266 -558.8079833984375 -187.5838165283203 -558.8079833984375 -184.7587127685547 L -558.8079833984375 -171.4941864013672 C -558.8079833984375 -168.6690673828125 -561.1063842773438 -166.3706665039062 -563.9315185546875 -166.3706665039062 Z M -633.984130859375 -187.5296783447266 C -635.51220703125 -187.5296783447266 -636.7552490234375 -186.28662109375 -636.7552490234375 -184.7587127685547 L -636.7552490234375 -171.4941864013672 C -636.7552490234375 -169.9662628173828 -635.51220703125 -168.7232055664062 -633.984130859375 -168.7232055664062 L -563.9315185546875 -168.7232055664062 C -562.403564453125 -168.7232055664062 -561.1605224609375 -169.9662628173828 -561.1605224609375 -171.4941864013672 L -561.1605224609375 -184.7587127685547 C -561.1605224609375 -186.28662109375 -562.403564453125 -187.5296783447266 -563.9315185546875 -187.5296783447266 L -633.984130859375 -187.5296783447266 Z" transform="matrix(1,0,0,1,639.1077880859375,189.88221740722656)" fill="#1fbe54" fill-rule="evenodd"/></g><g transform="matrix(1,0,0,1,49.304805755615234,53.98744583129883)"><path d="M -8.825277328491211 -103.6300811767578 C -9.276601791381836 -103.6300811767578 -9.707098007202148 -103.8912811279297 -9.901527404785156 -104.3305435180664 C -10.16446876525879 -104.9245834350586 -9.89605712890625 -105.6193084716797 -9.302019119262695 -105.8822479248047 C -3.828104019165039 -108.30517578125 0.5535092949867249 -112.6403732299805 3.035682439804077 -118.089225769043 C 3.304989337921143 -118.6804046630859 4.002554893493652 -118.9413452148438 4.593738555908203 -118.6720275878906 C 5.184921741485596 -118.4027252197266 5.445854187011719 -117.7051544189453 5.176546573638916 -117.1139755249023 C 2.455270051956177 -111.1402359008789 -2.348487615585327 -106.3874206542969 -8.349819183349609 -103.7310333251953 C -8.504602432250977 -103.6625213623047 -8.666242599487305 -103.6300811767578 -8.825277328491211 -103.6300811767578 Z" transform="matrix(1,0,0,1,10.002479553222656,118.77815246582031)" fill="#1fbe54" fill-rule="evenodd"/></g><g transform="matrix(1,0,0,1,15.709915161132812,53.98743438720703)"><path d="M 4.032730102539062 5.113347053527832 C 3.872507810592651 5.113347053527832 3.7097008228302 5.080431938171387 3.553938150405884 5.010903835296631 C -2.411344766616821 2.348155498504639 -7.188066959381104 -2.392671585083008 -9.896308898925781 -8.338266372680664 C -10.16560363769531 -8.929459571838379 -9.904648780822754 -9.627018928527832 -9.313459396362305 -9.896307945251465 C -8.72226619720459 -10.16559600830078 -8.024706840515137 -9.904645919799805 -7.755417823791504 -9.31345272064209 C -5.285147666931152 -3.890302658081055 -0.9281955361366272 0.4339275360107422 4.512851715087891 2.862673997879028 C 5.106071472167969 3.127470016479492 5.372307300567627 3.823030471801758 5.107509613037109 4.416245937347412 C 4.912242412567139 4.853698253631592 4.482713222503662 5.113347053527832 4.032730102539062 5.113347053527832 Z" transform="matrix(1,0,0,1,10.002418518066406,10.002413749694824)" fill="#1fbe54" fill-rule="evenodd"/></g><g transform="matrix(1,0,0,1,55.841304779052734,24.217201232910156)"><path d="M -56.80054473876953 -72.23680877685547 C -57.24736404418945 -72.23680877685547 -57.67446136474609 -72.49267578125 -57.87173080444336 -72.92583465576172 C -59.28698348999023 -76.03334045410156 -61.39707183837891 -78.8739013671875 -63.97388076782227 -81.14041137695312 C -64.461669921875 -81.56946563720703 -64.50927734375 -82.31270599365234 -64.08023071289062 -82.80049896240234 C -63.65118408203125 -83.28829193115234 -62.90793228149414 -83.33590698242188 -62.42014312744141 -82.90685272216797 C -59.55545806884766 -80.38713073730469 -57.30483627319336 -77.35708618164062 -55.73077774047852 -73.90088653564453 C -55.46152877807617 -73.30967712402344 -55.72252655029297 -72.61214447021484 -56.3137321472168 -72.34288024902344 C -56.47177886962891 -72.27090454101562 -56.63750839233398 -72.23680877685547 -56.80054473876953 -72.23680877685547 Z" transform="matrix(1,0,0,1,64.373291015625,83.19991302490234)" fill="#1fbe54" fill-rule="evenodd"/></g><g transform="matrix(1,0,0,1,15.709959983825684,24.217138290405273)"><path d="M -63.19978332519531 0.9630117416381836 C -63.36285400390625 0.9630117416381836 -63.52853012084961 0.9289265871047974 -63.68661499023438 0.856928825378418 C -64.27781677246094 0.5876623392105103 -64.53880310058594 -0.109885573387146 -64.26953887939453 -0.7010866403579712 C -62.7175407409668 -4.108702659606934 -60.40439987182617 -7.222909450531006 -57.58018493652344 -9.707035064697266 C -57.0923957824707 -10.13608932495117 -56.34914779663086 -10.08847045898438 -55.92009353637695 -9.600679397583008 C -55.49104690551758 -9.112890243530273 -55.53866195678711 -8.36964225769043 -56.02645492553711 -7.940593719482422 C -58.6031494140625 -5.674178600311279 -60.71323394775391 -2.833617687225342 -62.12860488891602 0.2740020751953125 C -62.32586669921875 0.7071224451065063 -62.75300598144531 0.9630117416381836 -63.19978332519531 0.9630117416381836 Z" transform="matrix(1,0,0,1,64.37562561035156,10.00009536743164)" fill="#1fbe54" fill-rule="evenodd"/></g><g transform="matrix(1,0,0,1,34.12691879272461,63.33708953857422)"><path d="M -54.03071212768555 -15.50095367431641 C -53.13459014892578 -15.50095367431641 -52.33153915405273 -15.00177383422852 -51.93494033813477 -14.19821262359619 L -51.33663558959961 -12.98607158660889 L -50.01048278808594 -12.79996490478516 C -49.12373733520508 -12.67113876342773 -48.4007682800293 -12.06162166595459 -48.12382125854492 -11.2092924118042 C -47.84689712524414 -10.35702991485596 -48.07349395751953 -9.43903923034668 -48.71517944335938 -8.813570976257324 L -49.68317031860352 -7.870043277740479 L -49.45026016235352 -6.55130672454834 C -49.33343505859375 -5.870079040527344 -49.5201301574707 -5.178486347198486 -49.96247100830078 -4.65383243560791 C -50.41109848022461 -4.121713161468506 -51.06396102905273 -3.816529989242554 -51.75364303588867 -3.816529989242554 C -52.1332893371582 -3.816529989242554 -52.49921798706055 -3.907686948776245 -52.84126663208008 -4.087467670440674 L -54.03789520263672 -4.716598987579346 L -55.21985244750977 -4.087563991546631 C -55.55735778808594 -3.910203456878662 -55.93345260620117 -3.816529989242554 -56.3077278137207 -3.816529989242554 C -56.99742889404297 -3.816529989242554 -57.65027236938477 -4.121692657470703 -58.09886932373047 -4.653764724731445 C -58.54119873046875 -5.178406238555908 -58.72788238525391 -5.870023727416992 -58.61104965209961 -6.551281452178955 L -58.38253784179688 -7.883625030517578 L -59.34612274169922 -8.813566207885742 C -59.98785018920898 -9.439077377319336 -60.21446228027344 -10.35710620880127 -59.93753051757812 -11.20939636230469 C -59.66060256958008 -12.06167221069336 -58.93767166137695 -12.67114639282227 -58.05086898803711 -12.79998207092285 L -56.71316146850586 -12.9944486618042 L -56.12634658813477 -14.19825077056885 C -55.72994232177734 -15.0017147064209 -54.92690658569336 -15.50095367431641 -54.03071212768555 -15.50095367431641 Z M -51.74662780761719 -6.169816970825195 L -51.99745178222656 -7.485937118530273 C -52.12760162353516 -8.244437217712402 -51.87622833251953 -9.017918586730957 -51.32501220703125 -9.554910659790039 L -50.35724639892578 -10.49821186065674 L -51.68659591674805 -10.66638374328613 C -52.44789505004883 -10.77690315246582 -53.10580444335938 -11.25490570068359 -53.4462776184082 -11.9450101852417 L -54.03656387329102 -13.14089488983154 L -54.6151237487793 -11.9448127746582 C -54.95549774169922 -11.25490188598633 -55.61342239379883 -10.77689933776855 -56.37496185302734 -10.66635036468506 L -57.71253204345703 -10.47190570831299 L -56.73606872558594 -9.5546875 C -56.18534469604492 -9.018178939819336 -55.93394470214844 -8.244869232177734 -56.06379318237305 -7.486314296722412 L -56.29236602783203 -6.153617858886719 L -55.11839294433594 -6.79885196685791 C -54.44992828369141 -7.150285720825195 -53.61106109619141 -7.150194644927979 -52.94294738769531 -6.798789978027344 L -51.74662780761719 -6.169816970825195 Z" transform="matrix(1,0,0,1,60.05366516113281,15.500953674316406)" fill="#1fbe54" fill-rule="evenodd"/></g><g transform="matrix(1,0,0,1,21.143003463745117,0.5882137417793274)"><path d="M -221.3800048828125 -249.4887237548828 C -221.7427673339844 -249.4887237548828 -222.1005859375 -249.6559753417969 -222.3309020996094 -249.9713897705078 C -222.7140197753906 -250.4960479736328 -222.5992889404297 -251.23193359375 -222.0746307373047 -251.6150207519531 C -217.7896423339844 -254.7440338134766 -215.2314453125 -259.7752685546875 -215.2314453125 -265.0735778808594 C -215.2314453125 -274.2568969726562 -222.7025451660156 -281.7280883789062 -231.8857879638672 -281.7280883789062 C -241.0690460205078 -281.7280883789062 -248.5401763916016 -274.2568969726562 -248.5401763916016 -265.0735778808594 C -248.5401763916016 -259.7752685546875 -245.9819641113281 -254.7440338134766 -241.6969604492188 -251.6150207519531 C -241.1723327636719 -251.23193359375 -241.0575866699219 -250.4960479736328 -241.4407043457031 -249.9713897705078 C -241.8238067626953 -249.4467620849609 -242.5596771240234 -249.3320159912109 -243.0843353271484 -249.7151184082031 C -247.9736938476562 -253.2854614257812 -250.8927001953125 -259.0269470214844 -250.8927001953125 -265.0735778808594 C -250.8927001953125 -275.5541076660156 -242.3662414550781 -284.0806274414062 -231.8857879638672 -284.0806274414062 C -221.4053649902344 -284.0806274414062 -212.87890625 -275.5541076660156 -212.87890625 -265.0735778808594 C -212.87890625 -259.0269470214844 -215.7979278564453 -253.2854614257812 -220.6872711181641 -249.7151184082031 C -220.8965148925781 -249.5623321533203 -221.1393585205078 -249.4887237548828 -221.3800048828125 -249.4887237548828 Z" transform="matrix(1,0,0,1,250.8927001953125,284.08062744140625)" fill="#1fbe54" fill-rule="evenodd"/></g><g transform="matrix(1,0,0,1,28.791078567504883,9.704089164733887)"><path d="M -137.9339447021484 -77.61177825927734 C -139.0049743652344 -77.61177062988281 -140.0760345458984 -78.01942443847656 -140.8914489746094 -78.83473968505859 L -146.5561065673828 -84.49954986572266 C -147.0929412841797 -85.03624725341797 -147.3886413574219 -85.75005340576172 -147.3886413574219 -86.50935363769531 C -147.3886413574219 -87.26864624023438 -147.0929412841797 -87.98245239257812 -146.5559844970703 -88.51926422119141 L -144.34521484375 -90.73020172119141 C -143.2369232177734 -91.83849334716797 -141.4336547851562 -91.83849334716797 -140.3253936767578 -90.73023223876953 L -137.770751953125 -88.17559814453125 L -129.9669647216797 -95.97951507568359 C -128.8586578369141 -97.08756256103516 -127.0554809570312 -97.08756256103516 -125.9472732543945 -95.97962188720703 L -123.8993453979492 -93.93152618408203 C -123.3625259399414 -93.39484405517578 -123.0668182373047 -92.68104553222656 -123.0668182373047 -91.92174530029297 C -123.0668182373047 -91.16245269775391 -123.3625259399414 -90.44863891601562 -123.8994750976562 -89.91183471679688 L -129.2200164794922 -84.59128570556641 C -129.6793670654297 -84.13191986083984 -130.4241485595703 -84.13191986083984 -130.8834991455078 -84.59128570556641 C -131.3428649902344 -85.05065155029297 -131.3428649902344 -85.79541778564453 -130.8834991455078 -86.25477600097656 L -125.562858581543 -91.57541656494141 C -125.4379806518555 -91.70027923583984 -125.4193496704102 -91.84599304199219 -125.4193496704102 -91.92174530029297 C -125.4193496704102 -91.99749755859375 -125.4379806518555 -92.14321136474609 -125.5627593994141 -92.26796722412109 L -127.6106948852539 -94.31606292724609 C -127.8016204833984 -94.50694274902344 -128.1125183105469 -94.50694274902344 -128.3035736083984 -94.31592559814453 L -136.9389953613281 -85.68035888671875 C -137.1595764160156 -85.45976257324219 -137.4587707519531 -85.33583831787109 -137.7707366943359 -85.33583068847656 C -138.0827026367188 -85.33583068847656 -138.3818969726562 -85.45975494384766 -138.6024780273438 -85.68035125732422 L -141.9888916015625 -89.06674194335938 C -142.1798858642578 -89.25775146484375 -142.4906768798828 -89.25775146484375 -142.6816864013672 -89.06674194335938 L -144.8925628662109 -86.85569763183594 C -145.0174713134766 -86.73081970214844 -145.0361175537109 -86.58510589599609 -145.0361175537109 -86.50935363769531 C -145.0361175537109 -86.43359375 -145.0174713134766 -86.28787994384766 -144.8927001953125 -86.16313171386719 L -139.2280120849609 -80.49827575683594 C -138.5144653320312 -79.78483581542969 -137.3534851074219 -79.78482055664062 -136.6399993896484 -80.49828338623047 L -134.7922821044922 -82.34584045410156 C -134.3329010009766 -82.80518341064453 -133.588134765625 -82.80515289306641 -133.1287994384766 -82.34577941894531 C -132.6694488525391 -81.88639068603516 -132.6694793701172 -81.14162445068359 -133.1288604736328 -80.68228149414062 L -134.9765472412109 -78.83475494384766 C -135.7918701171875 -78.01944732666016 -136.8628997802734 -77.61178588867188 -137.9339447021484 -77.61177825927734 Z" transform="matrix(1,0,0,1,147.38864135742188,96.81056213378906)" fill="#1fbe54" fill-rule="evenodd"/></g><g transform="matrix(1,0,0,1,4.081156253814697,39.17874526977539)"><path d="M -8.82630729675293 -68.25367736816406 C -8.965490341186523 -68.25367736816406 -9.106925964355469 -68.27853393554688 -9.244730949401855 -68.33101654052734 C -9.851826667785645 -68.56223297119141 -10.15653991699219 -69.24181365966797 -9.925328254699707 -69.84890747070312 L -6.891658306121826 -77.81443023681641 C -6.670833110809326 -78.35409545898438 -6.17754077911377 -78.68534851074219 -5.624066829681396 -78.68583679199219 C -5.070494651794434 -78.68694305419922 -4.576770782470703 -78.35595703125 -4.365917682647705 -77.84418487548828 L -1.346911907196045 -69.84555816650391 C -1.117546319961548 -69.23776245117188 -1.424330234527588 -68.55911254882812 -2.032123804092407 -68.32975006103516 C -2.63992166519165 -68.10038757324219 -3.318574905395508 -68.40715789794922 -3.547939777374268 -69.01496124267578 L -5.627302169799805 -74.52510833740234 L -7.726840496063232 -69.01161193847656 C -7.905569076538086 -68.54232025146484 -8.352322578430176 -68.25367736816406 -8.82630729675293 -68.25367736816406 Z" transform="matrix(1,0,0,1,10.002668380737305,78.68583679199219)" fill="#1fbe54" fill-rule="evenodd"/></g><g transform="matrix(1,0,0,1,60.96750259399414,39.4216194152832)"><path d="M -34.12774658203125 0.3580635190010071 L -37.5009651184082 0.3580635190010071 C -38.15060043334961 0.3580635190010071 -38.67723083496094 -0.1685725748538971 -38.67723083496094 -0.8182067275047302 L -38.67723083496094 -8.823716163635254 C -38.67723083496094 -9.473350524902344 -38.15060043334961 -9.999985694885254 -37.5009651184082 -9.999985694885254 L -34.12774658203125 -9.999985694885254 C -33.47811126708984 -9.999985694885254 -32.95148086547852 -9.473350524902344 -32.95148086547852 -8.823716163635254 C -32.95148086547852 -8.174081802368164 -33.47811126708984 -7.64745044708252 -34.12774658203125 -7.64745044708252 L -36.32469940185547 -7.64745044708252 L -36.32469940185547 -1.994471549987793 L -34.12774658203125 -1.994471549987793 C -33.47811126708984 -1.994471549987793 -32.95148086547852 -1.467840433120728 -32.95148086547852 -0.8182067275047302 C -32.95148086547852 -0.1685725748538971 -33.47811126708984 0.3580635190010071 -34.12774658203125 0.3580635190010071 Z" transform="matrix(1,0,0,1,38.67723083496094,9.999985694885254)" fill="#1fbe54" fill-rule="evenodd"/></g><g transform="matrix(1,0,0,1,60.96750259399414,43.42430114746094)"><path d="M -32.26183319091797 -7.647439002990723 L -35.38631057739258 -7.647439002990723 C -36.03594589233398 -7.647439002990723 -36.56258010864258 -8.174071311950684 -36.56258010864258 -8.823705673217773 C -36.56258010864258 -9.473339080810547 -36.03594589233398 -9.999971389770508 -35.38631057739258 -9.999971389770508 L -32.26183319091797 -9.999971389770508 C -31.6121997833252 -9.999971389770508 -31.08556938171387 -9.473339080810547 -31.08556938171387 -8.823705673217773 C -31.08556938171387 -8.174071311950684 -31.6121997833252 -7.647439002990723 -32.26183319091797 -7.647439002990723 Z" transform="matrix(1,0,0,1,36.56258010864258,9.999971389770508)" fill="#1fbe54" fill-rule="evenodd"/></g><g transform="matrix(1,0,0,1,68.39393615722656,39.30645751953125)"><path d="M -8.823699951171875 0.05725574493408203 C -9.473334312438965 0.05725574493408203 -9.999965667724609 -0.4693758189678192 -9.999965667724609 -1.119010448455811 L -9.999965667724609 -8.823713302612305 C -9.999965667724609 -9.47335147857666 -9.473334312438965 -9.999982833862305 -8.823699951171875 -9.999982833862305 C -8.174065589904785 -9.999982833862305 -7.647434711456299 -9.47335147857666 -7.647434711456299 -8.823713302612305 L -7.647434711456299 -1.119010448455811 C -7.647434711456299 -0.4693758189678192 -8.174065589904785 0.05725574493408203 -8.823699951171875 0.05725574493408203 Z" transform="matrix(1,0,0,1,9.99996566772461,9.999982833862305)" fill="#1fbe54" fill-rule="evenodd"/></g><g transform="matrix(1,0,0,1,68.39395904541016,39.29834747314453)"><path d="M -54.61825561523438 -43.32656097412109 L -52.39778137207031 -43.32656097412109 C -49.80042266845703 -43.32656097412109 -48.05532073974609 -41.27848815917969 -48.05532073974609 -38.23019409179688 C -48.05532073974609 -35.33036804199219 -49.84557342529297 -33.19436645507812 -52.31214141845703 -33.15125274658203 C -52.95004272460938 -33.14019012451172 -54.59790802001953 -33.13382720947266 -54.59790802001953 -33.13382720947266 C -54.90992736816406 -33.13258743286133 -55.20962524414062 -33.25543975830078 -55.43107604980469 -33.47524261474609 C -55.65252685546875 -33.69505310058594 -55.77755737304688 -33.99384689331055 -55.77867889404297 -34.30586242675781 C -55.77867889404297 -34.30586242675781 -55.78887939453125 -37.14873504638672 -55.78887939453125 -38.23897552490234 L -55.79452514648438 -42.14809417724609 C -55.79511260986328 -42.46044158935547 -55.67144012451172 -42.76020050048828 -55.45078277587891 -42.98126220703125 C -55.23012542724609 -43.20233154296875 -54.93061065673828 -43.32656097412109 -54.61825561523438 -43.32656097412109 Z M -53.43009948730469 -35.49262237548828 C -53.02371978759766 -35.49539184570312 -52.60713958740234 -35.4990234375 -52.35308837890625 -35.50342559814453 C -51.00938415527344 -35.52691650390625 -50.40785217285156 -36.88986206054688 -50.40785217285156 -38.23019409179688 C -50.40785217285156 -38.87386322021484 -50.55135345458984 -40.97402954101562 -52.39778137207031 -40.97402954101562 L -53.44029235839844 -40.97402954101562 L -53.43634796142578 -38.23897552490234 C -53.43634796142578 -37.61185455322266 -53.43296051025391 -36.40364074707031 -53.43009948730469 -35.49262237548828 Z" transform="matrix(1,0,0,1,55.79452896118164,43.326560974121094)" fill="#1fbe54" fill-rule="evenodd"/></g><g transform="matrix(1,0,0,1,51.05983352661133,39.17839431762695)"><path d="M -5.892040252685547 0.429507851600647 C -6.466658592224121 0.429507851600647 -6.980515480041504 0.06677520275115967 -7.172547340393066 -0.4754030108451843 L -9.937341690063477 -8.440382957458496 C -10.15037250518799 -9.054097175598145 -9.825552940368652 -9.724300384521484 -9.211841583251953 -9.937331199645996 C -8.598127365112305 -10.15036106109619 -7.927920341491699 -9.825541496276855 -7.714890480041504 -9.211831092834473 L -5.912600517272949 -4.019641876220703 L -4.197671413421631 -9.182036399841309 C -3.992866992950439 -9.798542022705078 -3.327063798904419 -10.13229370117188 -2.710557222366333 -9.927489280700684 C -2.09404993057251 -9.722684860229492 -1.760300636291504 -9.056884765625 -1.965103983879089 -8.440378189086914 L -4.603076934814453 -0.4994810819625854 C -4.792072296142578 0.05588281154632568 -5.305576324462891 0.4259176254272461 -5.88361930847168 0.4294817447662354 C -5.886405944824219 0.4294988512992859 -5.889256477355957 0.429507851600647 -5.892040252685547 0.429507851600647 Z" transform="matrix(1,0,0,1,10.002704620361328,10.002693176269531)" fill="#1fbe54" fill-rule="evenodd"/></g><g transform="matrix(1,0,0,1,32.54298782348633,43.438838958740234)"><path d="M -5.429588317871094 -3.791420698165894 C -5.755878925323486 -3.791420698165894 -6.080528259277344 -3.926387786865234 -6.313044548034668 -4.190578937530518 L -9.706806182861328 -8.046694755554199 C -10.13599967956543 -8.534358978271484 -10.08859920501709 -9.277619361877441 -9.600934982299805 -9.706812858581543 C -9.113271713256836 -10.13600921630859 -8.370010375976562 -10.0886058807373 -7.94081449508667 -9.60094165802002 L -4.547051906585693 -5.744824886322021 C -4.11785888671875 -5.257160663604736 -4.16525936126709 -4.513900756835938 -4.652923583984375 -4.084707736968994 C -4.876396179199219 -3.888027191162109 -5.153585910797119 -3.791420698165894 -5.429588317871094 -3.791420698165894 Z" transform="matrix(1,0,0,1,10.000091552734375,10.000099182128906)" fill="#1fbe54" fill-rule="evenodd"/></g><g transform="matrix(1,0,0,1,31.568675994873047,39.215633392333984)"><path d="M -8.823699951171875 0.4319319725036621 C -9.473334312438965 0.4319319725036621 -9.999965667724609 -0.09470322728157043 -9.999965667724609 -0.7443378567695618 L -9.999965667724609 -8.82371711730957 C -9.999965667724609 -9.473350524902344 -9.473334312438965 -9.99998664855957 -8.823699951171875 -9.99998664855957 C -8.174065589904785 -9.99998664855957 -7.647434711456299 -9.473350524902344 -7.647434711456299 -8.82371711730957 L -7.647434711456299 -0.7443378567695618 C -7.647434711456299 -0.09470322728157043 -8.174065589904785 0.4319319725036621 -8.823699951171875 0.4319319725036621 Z" transform="matrix(1,0,0,1,9.99996566772461,9.99998664855957)" fill="#1fbe54" fill-rule="evenodd"/></g><g transform="matrix(1,0,0,1,31.57141876220703,39.21558380126953)"><path d="M -45.93562316894531 -27.85060691833496 L -43.78885650634766 -27.85060691833496 C -41.91692352294922 -27.85060691833496 -40.39399719238281 -26.38100624084473 -40.39399719238281 -24.57462310791016 C -40.39399719238281 -22.76815605163574 -41.91692352294922 -21.29848861694336 -43.78885650634766 -21.29848861694336 C -44.38272857666016 -21.29848861694336 -45.91376113891602 -21.28941345214844 -45.91376113891602 -21.28941345214844 C -46.56322479248047 -21.28558540344238 -47.0928955078125 -21.80881309509277 -47.09696578979492 -22.45827674865723 C -47.09696578979492 -22.45827674865723 -47.10655975341797 -23.98789405822754 -47.10655975341797 -24.57462310791016 L -47.11188507080078 -26.67046546936035 C -47.1129150390625 -26.98310089111328 -46.98944473266602 -27.28328514099121 -46.76874160766602 -27.50471878051758 C -46.54803848266602 -27.72614860534668 -46.24826431274414 -27.85060691833496 -45.93562316894531 -27.85060691833496 Z M -44.7509765625 -23.64803314208984 C -44.38492584228516 -23.64968299865723 -44.01776123046875 -23.65102005004883 -43.78885650634766 -23.65102005004883 C -43.22385787963867 -23.65102005004883 -42.74652862548828 -24.07397842407227 -42.74652862548828 -24.57462310791016 C -42.74652862548828 -25.07518577575684 -43.22385787963867 -25.49807548522949 -43.78885650634766 -25.49807548522949 L -44.75637054443359 -25.49807548522949 L -44.75402450561523 -24.57462310791016 C -44.75402450561523 -24.35499572753906 -44.75266647338867 -24.00224113464355 -44.7509765625 -23.64803314208984 Z" transform="matrix(1,0,0,1,47.11189270019531,27.85060691833496)" fill="#1fbe54" fill-rule="evenodd"/></g><g transform="matrix(1,0,0,1,14.390728950500488,39.215633392333984)"><path d="M -8.823699951171875 0.4319319725036621 C -9.473334312438965 0.4319319725036621 -9.999965667724609 -0.09470322728157043 -9.999965667724609 -0.7443378567695618 L -9.999965667724609 -8.82371711730957 C -9.999965667724609 -9.473350524902344 -9.473334312438965 -9.99998664855957 -8.823699951171875 -9.99998664855957 C -8.174065589904785 -9.99998664855957 -7.647434711456299 -9.473350524902344 -7.647434711456299 -8.82371711730957 L -7.647434711456299 -0.7443378567695618 C -7.647434711456299 -0.09470322728157043 -8.174065589904785 0.4319319725036621 -8.823699951171875 0.4319319725036621 Z" transform="matrix(1,0,0,1,9.99996566772461,9.99998664855957)" fill="#1fbe54" fill-rule="evenodd"/></g><g transform="matrix(1,0,0,1,14.3907470703125,39.21565246582031)"><path d="M -47.71158981323242 -29.38257598876953 L -45.46194458007812 -29.38257598876953 C -43.53155136108398 -29.38257598876953 -41.9610595703125 -27.83213806152344 -41.9610595703125 -25.9263916015625 C -41.9610595703125 -24.02055740356445 -43.53155136108398 -22.47005081176758 -45.46194458007812 -22.47005081176758 C -46.08440780639648 -22.47005081176758 -47.68857574462891 -22.46003723144531 -47.68857574462891 -22.46003723144531 C -48.00056838989258 -22.45809173583984 -48.30055618286133 -22.58017349243164 -48.52252960205078 -22.79943084716797 C -48.74449920654297 -23.01869201660156 -48.87026596069336 -23.31715393066406 -48.87215423583984 -23.629150390625 C -48.87215423583984 -23.629150390625 -48.8822135925293 -25.28954696655273 -48.8822135925293 -25.9263916015625 L -48.88784790039062 -28.20253753662109 C -48.88885879516602 -28.51515579223633 -48.7653694152832 -28.81531143188477 -48.54467391967773 -29.03672409057617 C -48.32396697998047 -29.25812911987305 -48.02421188354492 -29.38257598876953 -47.71158981323242 -29.38257598876953 Z M -46.52600860595703 -24.81902313232422 C -46.12433242797852 -24.82096481323242 -45.71350479125977 -24.82258224487305 -45.46194458007812 -24.82258224487305 C -44.83947372436523 -24.82258224487305 -44.31359481811523 -25.32806396484375 -44.31359481811523 -25.9263916015625 C -44.31359481811523 -26.52463150024414 -44.83947372436523 -27.03004455566406 -45.46194458007812 -27.03004455566406 L -46.53240966796875 -27.03004455566406 L -46.52967834472656 -25.9263916015625 C -46.52967834472656 -25.66696166992188 -46.52799606323242 -25.236572265625 -46.52600860595703 -24.81902313232422 Z" transform="matrix(1,0,0,1,48.887855529785156,29.38257598876953)" fill="#1fbe54" fill-rule="evenodd"/></g><g transform="matrix(1,0,0,1,22.979326248168945,39.215633392333984)"><path d="M -8.823699951171875 0.4319319725036621 C -9.473334312438965 0.4319319725036621 -9.999965667724609 -0.09470322728157043 -9.999965667724609 -0.7443378567695618 L -9.999965667724609 -8.82371711730957 C -9.999965667724609 -9.473350524902344 -9.473334312438965 -9.99998664855957 -8.823699951171875 -9.99998664855957 C -8.174065589904785 -9.99998664855957 -7.647434711456299 -9.473350524902344 -7.647434711456299 -8.82371711730957 L -7.647434711456299 -0.7443378567695618 C -7.647434711456299 -0.09470322728157043 -8.174065589904785 0.4319319725036621 -8.823699951171875 0.4319319725036621 Z" transform="matrix(1,0,0,1,9.99996566772461,9.99998664855957)" fill="#1fbe54" fill-rule="evenodd"/></g><g transform="matrix(1,0,0,1,22.979328155517578,39.21565246582031)"><path d="M -47.71158981323242 -29.38257598876953 L -45.46194458007812 -29.38257598876953 C -43.53155136108398 -29.38257598876953 -41.9610595703125 -27.83213806152344 -41.9610595703125 -25.9263916015625 C -41.9610595703125 -24.02055740356445 -43.53155136108398 -22.47005081176758 -45.46194458007812 -22.47005081176758 C -46.08440780639648 -22.47005081176758 -47.68857574462891 -22.46003723144531 -47.68857574462891 -22.46003723144531 C -48.00056838989258 -22.45809173583984 -48.30055618286133 -22.58017349243164 -48.52252960205078 -22.79943084716797 C -48.74449920654297 -23.01869201660156 -48.87026596069336 -23.31715393066406 -48.87215423583984 -23.629150390625 C -48.87215423583984 -23.629150390625 -48.8822135925293 -25.28954696655273 -48.8822135925293 -25.9263916015625 L -48.88784790039062 -28.20253753662109 C -48.88885879516602 -28.51515579223633 -48.7653694152832 -28.81531143188477 -48.54467391967773 -29.03672409057617 C -48.32396697998047 -29.25812911987305 -48.02421188354492 -29.38257598876953 -47.71158981323242 -29.38257598876953 Z M -46.52600860595703 -24.81902313232422 C -46.12433242797852 -24.82096481323242 -45.71350479125977 -24.82258224487305 -45.46194458007812 -24.82258224487305 C -44.83947372436523 -24.82258224487305 -44.31359481811523 -25.32806396484375 -44.31359481811523 -25.9263916015625 C -44.31359481811523 -26.52463150024414 -44.83947372436523 -27.03004455566406 -45.46194458007812 -27.03004455566406 L -46.53240966796875 -27.03004455566406 L -46.52967834472656 -25.9263916015625 C -46.52967834472656 -25.66696166992188 -46.52799606323242 -25.236572265625 -46.52600860595703 -24.81902313232422 Z" transform="matrix(1,0,0,1,48.887855529785156,29.38257598876953)" fill="#1fbe54" fill-rule="evenodd"/></g><g transform="matrix(1,0,0,1,39.875160217285156,39.17868423461914)"><path d="M -73.46923828125 -33.91195297241211 C -76.34528350830078 -33.91195297241211 -78.68511962890625 -36.25178909301758 -78.68511962890625 -39.12783432006836 C -78.68511962890625 -42.00396728515625 -76.34528350830078 -44.34386825561523 -73.46923828125 -44.34386825561523 C -70.59320068359375 -44.34386825561523 -68.25336456298828 -42.00396728515625 -68.25336456298828 -39.12783432006836 C -68.25336456298828 -36.25178909301758 -70.59320068359375 -33.91195297241211 -73.46923828125 -33.91195297241211 Z M -73.46923828125 -41.99133682250977 C -75.048095703125 -41.99133682250977 -76.33258819580078 -40.7067756652832 -76.33258819580078 -39.12783432006836 C -76.33258819580078 -37.54897689819336 -75.048095703125 -36.26448440551758 -73.46923828125 -36.26448440551758 C -71.89038848876953 -36.26448440551758 -70.60588836669922 -37.54897689819336 -70.60588836669922 -39.12783432006836 C -70.60588836669922 -40.7067756652832 -71.89038848876953 -41.99133682250977 -73.46923828125 -41.99133682250977 Z" transform="matrix(1,0,0,1,78.68511962890625,44.343868255615234)" fill="#1fbe54" fill-rule="evenodd"/></g></g></g></g></svg>