<svg xmlns="http://www.w3.org/2000/svg" xmlns:xlink="http://www.w3.org/1999/xlink" width="63.78954792022705" height="73.62169118111683" viewBox="1159.7480459213257 1060.4583307729042 63.78954792022705 73.62169118111683"><g transform="matrix(1,0,0,1,1159.748046875,1060.471923828125)"><g transform="matrix(1,0,0,1,-9.5367431640625e-7,-0.013593077659606934)"><path d="M 21.10698127746582 38.28984451293945 C 19.49227142333984 39.31335830688477 17.65471267700195 39.93275833129883 15.7498836517334 40.0955810546875 C 15.16873836517334 37.97198867797852 13.24215698242188 36.49707794189453 11.04049777984619 36.49024200439453 L 4.906888008117676 36.49024200439453 C 2.196886539459229 36.49024200439453 -9.5367431640625e-07 38.68712997436523 -9.5367431640625e-07 41.39713287353516 L -9.5367431640625e-07 65.93157958984375 C -9.5367431640625e-07 68.64157867431641 2.196886777877808 70.83846282958984 4.906888008117676 70.83846282958984 L 11.04049777984619 70.83846282958984 C 13.26139259338379 70.8297119140625 15.1995153427124 69.33032989501953 15.76583290100098 67.18283081054688 C 16.80744552612305 67.23754119873047 17.8283576965332 67.49507141113281 18.77130126953125 67.94094848632812 C 19.24481582641602 68.16543579101562 19.69747543334961 68.43163299560547 20.15136337280273 68.69415283203125 C 20.82858276367188 69.10720062255859 21.53406143188477 69.47203063964844 22.26255226135254 69.78593444824219 C 24.16194725036621 70.51076507568359 26.18181991577148 70.86794281005859 28.2146110534668 70.83846282958984 L 50.29560852050781 70.83846282958984 C 52.10963439941406 70.83755493164062 53.7751579284668 69.83592224121094 54.6263427734375 68.23398590087891 C 55.47751998901367 66.63205718994141 55.37546157836914 64.69120788574219 54.36096954345703 63.18739700317383 C 55.79905319213867 62.69248580932617 56.92458343505859 61.55598831176758 57.40552520751953 60.11317443847656 C 57.88645935058594 58.67035293579102 57.66794204711914 57.08584213256836 56.81441879272461 55.82706832885742 C 58.61770629882812 55.20986938476562 59.89572525024414 53.59814834594727 60.085693359375 51.70166015625 C 60.27566146850586 49.80517196655273 59.34269714355469 47.97198486328125 57.69765853881836 47.00938415527344 C 58.45802307128906 46.13222885131836 58.87848663330078 45.01140975952148 58.88267135620117 43.8505744934082 C 58.88267135620117 41.14057159423828 56.68578720092773 38.94368743896484 53.97578430175781 38.94368743896484 L 38.47983169555664 38.94368743896484 C 40.39842224121094 35.29050827026367 43.88477325439453 27.12421607971191 40.49165344238281 21.18442726135254 C 38.99873352050781 18.5751895904541 35.87917709350586 16.53392219543457 32.56579971313477 18.22189331054688 C 29.1088981628418 19.97855758666992 29.88295745849609 23.44895553588867 30.25588417053223 25.11484146118164 C 31.20659255981445 29.38874244689941 28.12874984741211 33.82211685180664 21.10699081420898 38.28983688354492 Z M 11.04049777984619 68.38501739501953 L 4.906888008117676 68.38501739501953 C 3.551887273788452 68.38501739501953 2.45344352722168 67.28656768798828 2.45344352722168 65.93157958984375 L 2.45344352722168 41.39713287353516 C 2.45344352722168 40.04213333129883 3.551888465881348 38.94368743896484 4.906888008117676 38.94368743896484 L 11.04049777984619 38.94368743896484 C 12.39549922943115 38.94368743896484 13.49394226074219 40.04213333129883 13.49394226074219 41.39713287353516 L 13.49394226074219 65.93157958984375 C 13.49394226074219 67.28656768798828 12.39549827575684 68.38501739501953 11.04049777984619 68.38501739501953 Z M 32.65043258666992 24.58122253417969 C 32.09595489501953 22.09956359863281 32.34497833251953 21.0862922668457 33.67842483520508 20.41036605834961 C 35.84236145019531 19.30631828308105 37.6419677734375 21.14640045166016 38.3620491027832 22.4037914276123 C 42.02872467041016 28.82445335388184 35.40442657470703 39.40738677978516 35.33695602416992 39.51411437988281 C 35.0977783203125 39.89181137084961 35.08301162719727 40.36971282958984 35.29840850830078 40.76145935058594 C 35.5138053894043 41.15320205688477 35.92525482177734 41.39675140380859 36.37230682373047 41.39713668823242 L 53.97577667236328 41.39713668823242 C 55.33077239990234 41.39713668823242 56.42922210693359 42.49558258056641 56.42922210693359 43.85057830810547 C 56.42922210693359 45.2055778503418 55.33077239990234 46.30402374267578 53.97577667236328 46.30402374267578 L 46.61544418334961 46.30402374267578 C 45.93794250488281 46.30402374267578 45.38872146606445 46.85324859619141 45.38872146606445 47.53074645996094 C 45.38872146606445 48.20824432373047 45.93794250488281 48.75746917724609 46.61544418334961 48.75746917724609 L 55.20249938964844 48.75746917724609 C 56.5574951171875 48.75746917724609 57.65594100952148 49.85591506958008 57.65594100952148 51.21091461181641 C 57.65594100952148 52.56591415405273 56.5574951171875 53.66435623168945 55.20249938964844 53.66435623168945 L 46.61544418334961 53.66435623168945 C 45.93794250488281 53.66435623168945 45.38872146606445 54.21357727050781 45.38872146606445 54.89108276367188 C 45.38872146606445 55.56857681274414 45.93794250488281 56.11780548095703 46.61544418334961 56.11780548095703 L 52.74905014038086 56.11780548095703 C 54.10404968261719 56.11780548095703 55.20249938964844 57.21624755859375 55.20249938964844 58.57124710083008 C 55.20249938964844 59.92624664306641 54.10404968261719 61.02469253540039 52.74905014038086 61.02469253540039 L 46.61544418334961 61.02469253540039 C 45.93794250488281 61.02469253540039 45.38872146606445 61.57391738891602 45.38872146606445 62.25141143798828 C 45.38872146606445 62.92890930175781 45.93794250488281 63.47813415527344 46.61544418334961 63.47813415527344 L 50.29560852050781 63.47813415527344 C 51.65060806274414 63.47813415527344 52.74905014038086 64.57657623291016 52.74905014038086 65.93157958984375 C 52.74905014038086 67.28657531738281 51.65060806274414 68.38501739501953 50.29560852050781 68.38501739501953 L 28.2146110534668 68.38501739501953 C 26.49791145324707 68.41500854492188 24.79113388061523 68.11861419677734 23.1850471496582 67.51158905029297 C 22.56338119506836 67.24037170410156 21.96125221252441 66.92639923095703 21.38299369812012 66.57192993164062 C 20.87267684936523 66.27506256103516 20.35990715026855 65.98065185546875 19.82873725891113 65.72671508789062 C 18.60995483398438 65.15345001220703 17.29218101501465 64.82025146484375 15.9473876953125 64.74534606933594 L 15.9473876953125 42.56375122070312 C 18.25225257873535 42.35955810546875 20.47377014160156 41.60207748413086 22.42325401306152 40.35565185546875 C 30.40921592712402 35.27947616577148 33.85016632080078 29.97144508361816 32.65043640136719 24.58122634887695 Z" transform="matrix(1,0,0,1,9.5367431640625e-7,2.781541585922241)" fill="#1fbe54" fill-rule="evenodd"/><path d="M 40.05253601074219 2.194229125976562 L 40.05253601074219 2.219990253448486 L 40.05253601074219 2.229804039001465 C 40.05253601074219 2.681237697601318 39.9409065246582 13.27030372619629 30.22772216796875 13.27030372619629 C 29.55022239685059 13.27030372619629 29.00100135803223 13.81952476501465 29.00100135803223 14.49702548980713 C 29.00100135803223 15.17452526092529 29.55022239685059 15.72374725341797 30.22772216796875 15.72374725341797 C 39.90287780761719 15.72374725341797 40.05131149291992 26.31526565551758 40.05253601074219 26.76424789428711 C 40.04339218139648 27.44174575805664 40.58519744873047 27.99837875366211 41.26269912719727 28.00753021240234 C 41.9401969909668 28.01667594909668 42.496826171875 27.47486877441406 42.50597763061523 26.7973690032959 L 42.50597763061523 26.77160835266113 L 42.50597763061523 26.76424789428711 C 42.50597763061523 26.31281471252441 42.61761093139648 15.72374725341797 52.33202362060547 15.72374725341797 C 53.00951766967773 15.72374725341797 53.55874252319336 15.17452526092529 53.55874252319336 14.49702548980713 C 53.55874252319336 13.81952476501465 53.00951766967773 13.27030372619629 52.33202362060547 13.27030372619629 C 42.65563583374023 13.27030372619629 42.50843048095703 2.678784608840942 42.50597763061523 2.229804039001465 C 42.51511764526367 1.552303791046143 41.97331619262695 0.9956724047660828 41.29581451416016 0.9865210652351379 C 40.61831665039062 0.9773697257041931 40.06168746948242 1.519182324409485 40.05252838134766 2.196682691574097 Z M 46.73817443847656 14.49702548980713 C 44.22615432739258 15.8221549987793 42.28449630737305 18.01900672912598 41.27803039550781 20.67479705810547 C 40.27215957641602 18.01865005493164 38.33034133911133 15.82161521911621 35.81789398193359 14.49702548980713 C 38.33034133911133 13.17243576049805 40.27215957641602 10.97540092468262 41.27803039550781 8.319252967834473 C 42.28449630737305 10.97504425048828 44.22615432739258 13.17189693450928 46.73817443847656 14.49702548980713 Z" transform="matrix(1,0,0,1,6.575168609619141,-0.9864068031311035)" fill="#1fbe54" fill-rule="evenodd"/><path d="M 14.81377696990967 14.2274055480957 L 14.81377696990967 14.22004508972168 C 14.81174564361572 13.5425443649292 14.26087474822998 12.99497032165527 13.58337497711182 12.99700355529785 C 12.90587329864502 12.9990348815918 12.35829830169678 13.54990577697754 12.36033344268799 14.2274055480957 C 12.36033344268799 14.52795314788818 12.25728893280029 21.58773803710938 6.226722240447998 21.58773803710938 C 5.549221992492676 21.58773803710938 5 22.13696098327637 5 22.8144588470459 C 5 23.49195861816406 5.549221992492676 24.04118156433105 6.226722240447998 24.04118156433105 C 12.25728893280029 24.04118156433105 12.36033344268799 31.10342216491699 12.36033344268799 31.40151596069336 L 12.36033344268799 31.40887641906738 C 12.36236476898193 32.08637237548828 12.91323566436768 32.63394927978516 13.59073543548584 32.63191604614258 C 14.268235206604 32.6298828125 14.81581020355225 32.07901382446289 14.81377696990967 31.40151596069336 C 14.81377696990967 31.10096740722656 14.91682147979736 24.04118156433105 20.9473876953125 24.04118156433105 C 21.62488746643066 24.04118156433105 22.17411041259766 23.49195861816406 22.17411041259766 22.8144588470459 C 22.17411041259766 22.13696098327637 21.62488746643066 21.58773803710938 20.9473876953125 21.58773803710938 C 14.91682147979736 21.58773803710938 14.81377696990967 14.52549743652344 14.81377696990967 14.2274055480957 Z M 16.46249198913574 22.8144588470459 C 15.22033786773682 23.64299201965332 14.22649669647217 24.79328536987305 13.58705520629883 26.14255523681641 C 12.94761371612549 24.79328536987305 11.95377254486084 23.64298629760742 10.71161842346191 22.8144588470459 C 11.95401859283447 21.98620796203613 12.94793224334717 20.83583068847656 13.58705520629883 19.48636436462402 C 14.22618293762207 20.83583068847656 15.22009181976318 21.98621559143066 16.46249198913574 22.8144588470459 Z" transform="matrix(1,0,0,1,1.133612036705017,1.736657977104187)" fill="#1fbe54" fill-rule="evenodd"/><path d="M 47.22672271728516 22 C 46.54922485351562 22 46 22.54922103881836 46 23.22672271728516 L 46 25.6801643371582 C 46 26.357666015625 46.54922485351562 26.90688705444336 47.22672271728516 26.90688705444336 C 47.90421676635742 26.90688705444336 48.45344161987305 26.357666015625 48.45344161987305 25.6801643371582 L 48.45344161987305 23.22672271728516 C 48.45344161987305 22.54922103881836 47.90421676635742 22 47.22672271728516 22 Z" transform="matrix(1,0,0,1,10.429221153259277,3.7778406143188477)" fill="#1fbe54" fill-rule="evenodd"/><path d="M 47.22672271728516 32.90688705444336 C 47.90421676635742 32.90688705444336 48.45344161987305 32.35766983032227 48.45344161987305 31.6801643371582 L 48.45344161987305 29.22672271728516 C 48.45344161987305 28.54922294616699 47.90421676635742 28.00000190734863 47.22672271728516 28.00000190734863 C 46.54922485351562 28.00000190734863 46 28.54922294616699 46 29.22672271728516 L 46 31.6801643371582 C 46 32.35766983032227 46.54922485351562 32.90688705444336 47.22672271728516 32.90688705444336 Z" transform="matrix(1,0,0,1,10.429221153259277,5.138172149658203)" fill="#1fbe54" fill-rule="evenodd"/><path d="M 49.22671890258789 28.45344543457031 L 51.6801643371582 28.45344543457031 C 52.357666015625 28.45344543457031 52.90688323974609 27.90422058105469 52.90688323974609 27.22672080993652 C 52.90688323974609 26.54922485351562 52.357666015625 26 51.6801643371582 26 L 49.22671890258789 26 C 48.54922485351562 26 48 26.54922485351562 48 27.22672080993652 C 48 27.90422058105469 48.54922485351562 28.45344543457031 49.22671890258789 28.45344543457031 Z" transform="matrix(1,0,0,1,10.882664680480957,4.684729099273682)" fill="#1fbe54" fill-rule="evenodd"/><path d="M 45.68016815185547 28.45344543457031 C 46.357666015625 28.45344543457031 46.90689086914062 27.90422058105469 46.90689086914062 27.22672080993652 C 46.90689086914062 26.54922485351562 46.357666015625 26 45.68016815185547 26 L 43.22672271728516 26 C 42.54922485351562 26 42 26.54922485351562 42 27.22672080993652 C 42 27.90422058105469 42.54922485351562 28.45344543457031 43.22672271728516 28.45344543457031 L 45.68016815185547 28.45344543457031 Z" transform="matrix(1,0,0,1,9.522332191467285,4.684729099273682)" fill="#1fbe54" fill-rule="evenodd"/><path d="M 21.86221885681152 10.59680557250977 L 23.70230484008789 12.4368896484375 C 24.18364334106445 12.90178298950195 24.94875335693359 12.89513397216797 25.42194557189941 12.42194557189941 C 25.89513969421387 11.94875812530518 25.90178489685059 11.18364429473877 25.43689155578613 10.70230197906494 L 23.59680938720703 8.862218856811523 C 23.28880882263184 8.543323516845703 22.83271026611328 8.415431022644043 22.40381050109863 8.527694702148438 C 21.97491455078125 8.639959335327148 21.63996505737305 8.974908828735352 21.52770042419434 9.40380859375 C 21.41543579101562 9.832706451416016 21.5433292388916 10.28880596160889 21.86222267150879 10.59680461883545 Z" transform="matrix(1,0,0,1,4.871734619140625,0.7143001556396484)" fill="#1fbe54" fill-rule="evenodd"/><path d="M 19.19672775268555 7.93131160736084 C 19.67806816101074 8.396205902099609 20.44317626953125 8.389556884765625 20.91636848449707 7.916368961334229 C 21.38955879211426 7.443180561065674 21.39620590209961 6.678066730499268 20.93131256103516 6.196725368499756 L 19.09123039245605 4.35664176940918 C 18.60988807678223 3.891748428344727 17.84478187561035 3.898397207260132 17.3715877532959 4.371584892272949 C 16.89839935302734 4.844773292541504 16.89175033569336 5.609887599945068 17.35664367675781 6.091228485107422 L 19.19672775268555 7.93131160736084 Z" transform="matrix(1,0,0,1,3.8570621013641357,-0.30037298798561096)" fill="#1fbe54" fill-rule="evenodd"/><path d="M 17.3593807220459 12.4368896484375 C 17.83841705322266 12.91578006744385 18.61493301391602 12.91578006744385 19.09396362304688 12.4368896484375 L 20.93404769897461 10.59680557250977 C 21.2529411315918 10.28880882263184 21.38083648681641 9.832707405090332 21.26857376098633 9.403810501098633 C 21.15631103515625 8.974912643432617 20.82136154174805 8.639962196350098 20.39245986938477 8.527698516845703 C 19.96356201171875 8.415433883666992 19.50746154785156 8.543326377868652 19.199462890625 8.862222671508789 L 17.3593807220459 10.70230579376221 C 16.88048934936523 11.18134117126465 16.88048934936523 11.95785617828369 17.3593807220459 12.43689060211182 Z" transform="matrix(1,0,0,1,3.854326009750366,0.714300811290741)" fill="#1fbe54" fill-rule="evenodd"/><path d="M 22.72668075561523 8.296319961547852 C 23.052001953125 8.296249389648438 23.36396980285645 8.166959762573242 23.59397315979004 7.936888694763184 L 25.43405914306641 6.096805572509766 C 25.75295257568359 5.78880786895752 25.88084602355957 5.332707405090332 25.76858139038086 4.903809547424316 C 25.65631866455078 4.474912643432617 25.32136726379395 4.139962196350098 24.89247131347656 4.027697563171387 C 24.46356964111328 3.915433406829834 24.00747108459473 4.043326854705811 23.69947242736816 4.362220764160156 L 21.85939025878906 6.202303886413574 C 21.50865936279297 6.553139686584473 21.40375709533691 7.080682754516602 21.59358596801758 7.53900146484375 C 21.78341102600098 7.997322082519531 22.23059844970703 8.296207427978516 22.72668075561523 8.29631233215332 Z" transform="matrix(1,0,0,1,4.874569892883301,-0.3059498965740204)" fill="#1fbe54" fill-rule="evenodd"/></g></g></svg>