<svg xmlns="http://www.w3.org/2000/svg" xmlns:xlink="http://www.w3.org/1999/xlink" width="65.70199767729275" height="72.21965789794922" viewBox="782.793212890625 1060.7908935546875 65.70199767729275 72.21965789794922"><g transform="matrix(1,0,0,1,782.793212890625,1060.7908935546875)"><path d="M 49.22009658813477 31.26335525512695 L 49.22009658813477 17.59592628479004 C 49.22009658813477 17.20478248596191 49.03940582275391 16.84326171875 48.7838134765625 16.55734443664551 L 33.460693359375 0.4666899442672729 C 33.17463684082031 0.165848508477211 32.76811981201172 0 32.36202621459961 0 L 8.067626953125 0 C 3.582546234130859 0 0 3.657488584518433 0 8.143118858337402 L 0 54.08208465576172 C 0 58.56774139404297 3.582546234130859 62.16518783569336 8.067626953125 62.16518783569336 L 27.24430084228516 62.16518783569336 C 30.87150764465332 68.18579864501953 37.46465682983398 72.21965789794922 44.97535705566406 72.21965789794922 C 56.38465118408203 72.21965789794922 65.70197296142578 62.94761657714844 65.70197296142578 51.52323150634766 C 65.71735382080078 41.54365539550781 58.55223083496094 33.2049674987793 49.22009658813477 31.26335525512695 Z M 33.86735534667969 5.283461093902588 L 44.14765548706055 16.10554885864258 L 37.4796028137207 16.10554885864258 C 35.49271774291992 16.10554885864258 33.86735534667969 14.46523094177246 33.86735534667969 12.47831535339355 L 33.86735534667969 5.283461093902588 Z M 8.067626953125 59.1545295715332 C 5.253161907196045 59.1545295715332 3.010628938674927 56.89653778076172 3.010628938674927 54.08208465576172 L 3.010628938674927 8.143118858337402 C 3.010628938674927 5.313222885131836 5.253161907196045 3.010628938674927 8.067626953125 3.010628938674927 L 30.85669708251953 3.010628938674927 L 30.85669708251953 12.47831535339355 C 30.85669708251953 16.13587379455566 33.82207489013672 19.11606407165527 37.4796028137207 19.11606407165527 L 46.20957946777344 19.11606407165527 L 46.20957946777344 30.87150764465332 C 45.75820541381836 30.85669708251953 45.39682769775391 30.81155776977539 45.00554656982422 30.81155776977539 C 39.75240707397461 30.81155776977539 34.92074584960938 32.82863235473633 31.27816772460938 35.98965072631836 L 12.16205883026123 35.98965072631836 C 11.33391571044922 35.98965072631836 10.65674495697021 36.66685485839844 10.65674495697021 37.49441528320312 C 10.65674495697021 38.32268142700195 11.33391571044922 38.9997444152832 12.16205883026123 38.9997444152832 L 28.47852325439453 38.9997444152832 C 27.40961837768555 40.50507354736328 26.52139854431152 42.01040267944336 25.82938957214355 43.66609191894531 L 12.16205883026123 43.66609191894531 C 11.33391571044922 43.66609191894531 10.65674495697021 44.34329605102539 10.65674495697021 45.17142486572266 C 10.65674495697021 45.99898910522461 11.33391571044922 46.67675018310547 12.16205883026123 46.67675018310547 L 24.85089683532715 46.67675018310547 C 24.47456359863281 48.18207931518555 24.27892303466797 49.85272216796875 24.27892303466797 51.52323150634766 C 24.27892303466797 54.23245239257812 24.80561828613281 56.91205215454102 25.7539234161377 59.16990661621094 L 8.067626953125 59.16990661621094 L 8.067626953125 59.1545295715332 Z M 44.99073028564453 69.22451782226562 C 35.23713302612305 69.22451782226562 27.30439376831055 61.29178237915039 27.30439376831055 51.53818130493164 C 27.30439376831055 41.7844352722168 35.22161102294922 33.85183715820312 44.99073028564453 33.85183715820312 C 54.75928115844727 33.85183715820312 62.67650604248047 41.7844352722168 62.67650604248047 51.53818130493164 C 62.67650604248047 61.29178237915039 54.74433517456055 69.22451782226562 44.99073028564453 69.22451782226562 Z M 44.99073028564453 69.22451782226562" fill="#1fbe54" fill-rule="evenodd"/><path d="M 77.05611419677734 204.6945037841797 L 92.30366516113281 204.6945037841797 C 93.13179779052734 204.6945037841797 93.80899810791016 204.0168762207031 93.80899810791016 203.1891632080078 C 93.80899810791016 202.3610382080078 93.13179779052734 201.6839904785156 92.30366516113281 201.6839904785156 L 77.05611419677734 201.6839904785156 C 76.22796630859375 201.6839904785156 75.55079650878906 202.3610382080078 75.55079650878906 203.1891632080078 C 75.55079650878906 204.0168762207031 76.22796630859375 204.6945037841797 77.05611419677734 204.6945037841797 Z M 77.05611419677734 204.6945037841797" transform="matrix(1,0,0,1,-64.89405059814453,-173.2356414794922)" fill="#1fbe54" fill-rule="evenodd"/><path d="M 256.9816284179688 283.6925354003906 C 256.6957092285156 283.3916931152344 256.304443359375 283.2109985351562 255.8829498291016 283.2109985351562 C 255.4614715576172 283.2109985351562 255.0702056884766 283.3916931152344 254.7842864990234 283.6925354003906 L 245.9634552001953 293.1602478027344 C 245.3914947509766 293.7625427246094 245.4367828369141 294.7256469726562 246.0389251708984 295.2826538085938 C 246.6412200927734 295.8546447753906 247.6191558837891 295.8093872070312 248.1911163330078 295.2077941894531 L 254.4228973388672 288.5396118164062 L 254.4228973388672 304.976318359375 C 254.4228973388672 305.804443359375 255.0999603271484 306.481689453125 255.9281158447266 306.481689453125 C 256.7557983398438 306.481689453125 257.4334106445312 305.804443359375 257.4334106445312 304.976318359375 L 257.4334106445312 288.5396118164062 L 263.6195068359375 295.2077941894531 C 263.9208068847656 295.5234680175781 264.3120727539062 295.6893310546875 264.7187194824219 295.6893310546875 C 265.0795593261719 295.6893310546875 265.4410705566406 295.5538024902344 265.741943359375 295.2826538085938 C 266.3440856933594 294.710693359375 266.3892211914062 293.7625427246094 265.8173828125 293.1602478027344 L 256.9816284179688 283.6925354003906 Z M 256.9816284179688 283.6925354003906" transform="matrix(1,0,0,1,-210.92254638671875,-243.26295471191406)" fill="#1fbe54" fill-rule="evenodd"/></g></svg>