<?xml version="1.0" encoding="UTF-8"?>
<svg version="1.1" xmlns="http://www.w3.org/2000/svg" width="512" height="512">
<path d="M0 0 C0.92874939 -0.00832352 1.85749878 -0.01664703 2.81439209 -0.02522278 C5.89078946 -0.04935798 8.96697497 -0.05809912 12.04345703 -0.06469727 C14.17953557 -0.07366074 16.31561346 -0.08278253 18.45169067 -0.09205627 C22.93232755 -0.10855828 27.41288959 -0.11624863 31.89355469 -0.11914062 C37.63617424 -0.12452636 43.37809101 -0.16220959 49.12051201 -0.20788479 C53.5334429 -0.23762066 57.94620384 -0.24486343 62.35922623 -0.24586678 C64.47635238 -0.25007578 66.59347874 -0.2625372 68.71050644 -0.28338432 C71.67211398 -0.31022685 74.63208312 -0.30549433 77.59375 -0.29296875 C78.46873138 -0.30780304 79.34371277 -0.32263733 80.24520874 -0.33792114 C84.66580957 -0.28465527 86.37752576 -0.13184181 89.947052 2.71885681 C93.10821319 6.85161628 93.04505998 9.08394499 93.02392578 14.28295898 C93.02180336 15.31083023 93.02180336 15.31083023 93.01963806 16.35946655 C93.01403628 18.55015409 93.00148359 20.74073979 92.98876953 22.93139648 C92.98375476 24.41577001 92.97919181 25.90014513 92.97509766 27.38452148 C92.9640663 31.02517964 92.94680052 34.66577812 92.92626953 38.30639648 C94.01515284 38.30224842 94.01515284 38.30224842 95.12603378 38.29801655 C112.83039329 38.2316182 130.53472096 38.18204872 148.2391777 38.15095997 C156.801099 38.13552414 165.36293692 38.1144978 173.92480469 38.08007812 C181.39170206 38.05007479 188.85853902 38.03079764 196.325495 38.024131 C200.27523677 38.02023717 204.22480577 38.01115552 208.17449188 37.98920631 C211.90091517 37.96866788 215.62709642 37.96259726 219.35357094 37.96707344 C221.35516593 37.96586954 223.35673528 37.94981907 225.35826111 37.93313599 C237.48126308 37.97412504 247.2537601 39.78118415 256.92626953 47.30639648 C257.95751953 48.02827148 258.98876953 48.75014648 260.05126953 49.49389648 C267.09729096 55.59783148 272.14428885 65.48867304 273.20493019 74.73590827 C273.3128943 77.37942702 273.33116821 80.00810511 273.31394958 82.65377808 C273.32202789 84.1605018 273.32202789 84.1605018 273.3302694 85.69766438 C273.34450965 89.04376826 273.33745482 92.38947433 273.33032227 95.7355957 C273.33602789 98.14269324 273.34299289 100.54978808 273.35112 102.95687866 C273.36718588 108.8047891 273.36915621 114.65257606 273.36390709 120.50050388 C273.35985658 125.25659418 273.36131938 130.01265281 273.36665535 134.76874161 C273.36740377 135.44708511 273.36815219 136.12542862 273.3689233 136.82432798 C273.37045486 138.20263314 273.37199321 139.58093829 273.37353826 140.95924343 C273.38724918 153.86913082 273.38183567 166.77895752 273.37035305 179.6888435 C273.36042338 191.48231128 273.37335919 203.2756221 273.39728724 215.06906568 C273.421709 227.19784312 273.43127849 239.32654756 273.42463452 251.45534909 C273.42114895 258.25703123 273.42333028 265.05859273 273.44088554 271.8602562 C273.4563735 278.25764021 273.45237813 284.65472504 273.4335804 291.05209732 C273.42989964 293.39536737 273.43298792 295.73865967 273.44346619 298.08190918 C273.45671257 301.28996425 273.44509544 304.4970341 273.42747498 307.70504761 C273.43707998 308.62404055 273.44668499 309.5430335 273.45658106 310.48987472 C273.31692164 322.91664115 267.83470649 333.49870756 259.05126953 342.15405273 C247.40852541 351.63803805 234.51474986 352.4597489 220.18823242 352.41992188 C218.79805503 352.41963948 217.4078775 352.41979876 216.0177002 352.42036438 C212.2599569 352.42065032 208.50224578 352.41478648 204.74450994 352.40779042 C200.81140002 352.40152301 196.87828931 352.40095041 192.94517517 352.39976501 C185.50450648 352.39666167 178.06385255 352.38846175 170.62319034 352.37841552 C162.14918886 352.3672234 153.67518666 352.36173613 145.20117962 352.35672009 C127.77620107 352.34627828 110.35123686 352.32869818 92.92626953 352.30639648 C92.92903491 353.09030856 92.93180029 353.87422064 92.93464947 354.68188763 C93.00089008 373.75240396 93.05054075 392.82289734 93.08170605 411.89350414 C93.09717777 421.11589374 93.11827314 430.33820656 93.15258789 439.56054688 C93.18248088 447.59833573 93.20184231 455.63606898 93.20853502 463.67391187 C93.21244745 467.93026792 93.22164853 472.18646491 93.2434597 476.44277 C93.26382329 480.44905166 93.27010361 484.45510873 93.26559258 488.46143723 C93.26641784 489.93161426 93.27238436 491.4017988 93.28388596 492.87193108 C93.29882623 494.88011616 93.29343215 496.88842176 93.28703308 498.89665222 C93.28979846 500.02031787 93.29256384 501.14398352 93.29541302 502.30169964 C92.87530325 505.72124389 91.98036162 507.56211127 89.92626953 510.30639648 C85.94820308 512.95844079 82.47281864 512.60929937 77.85253906 512.61279297 C76.92378967 512.62111649 75.99504028 512.62944 75.03814697 512.63801575 C71.9617496 512.66215095 68.8855641 512.67089209 65.80908203 512.67749023 C63.67300349 512.68645371 61.53692561 512.6955755 59.40084839 512.70484924 C54.92021151 512.72135125 50.43964947 512.7290416 45.95898438 512.73193359 C40.21636482 512.73731933 34.47444806 512.77500255 28.73202705 512.82067776 C24.31909616 512.85041362 19.90633522 512.8576564 15.49331284 512.85865974 C13.37618668 512.86286875 11.25906032 512.87533017 9.14203262 512.89617729 C6.18042508 512.92301982 3.22045595 512.91828729 0.25878906 512.90576172 C-0.61619232 512.92059601 -1.49117371 512.9354303 -2.39266968 512.95071411 C-6.81327051 512.89744823 -8.5249867 512.74463478 -12.09451294 509.89393616 C-15.06100116 506.01568334 -15.19795411 504.10768338 -15.19398499 499.25741577 C-15.19604698 497.32224342 -15.19604698 497.32224342 -15.19815063 495.34797668 C-15.19461124 493.9101255 -15.19097643 492.47227455 -15.18725586 491.03442383 C-15.18697392 489.52675885 -15.18713186 488.01909373 -15.18769836 486.51142883 C-15.18798606 482.41042643 -15.18209379 478.3094531 -15.17512441 474.20845747 C-15.16888627 469.92564509 -15.1682867 465.64283209 -15.167099 461.36001587 C-15.16398704 453.24627792 -15.15577547 445.13255339 -15.14574951 437.01882136 C-15.13458417 427.78316052 -15.12907686 418.54749905 -15.12405407 409.31183314 C-15.11359276 390.3100133 -15.09599593 371.30820597 -15.07373047 352.30639648 C-16.14991796 352.30916186 -16.14991796 352.30916186 -17.2478466 352.31198311 C-34.73454131 352.35622185 -52.22122174 352.38928206 -69.70796013 352.41002083 C-78.16453948 352.42031744 -86.6210814 352.4343468 -95.07763672 352.45727539 C-102.45149103 352.47725882 -109.82531821 352.49012465 -117.19919884 352.49457347 C-121.10076833 352.49717249 -125.00226024 352.5032474 -128.90380478 352.5178566 C-132.58258188 352.53151891 -136.26125007 352.5356018 -139.94005013 352.53261185 C-141.92054261 352.53341695 -143.90102347 352.54413304 -145.88148499 352.55523682 C-159.15158199 352.52483721 -170.53081735 350.19071938 -181.38623047 342.05639648 C-190.92878764 332.29191937 -195.71114195 321.3798969 -195.58839417 307.73196411 C-195.59533969 306.72718391 -195.60228522 305.72240371 -195.60944122 304.68717563 C-195.62760023 301.35184661 -195.61747767 298.01723785 -195.60717773 294.68188477 C-195.61424182 292.27773511 -195.62298889 289.87358989 -195.63328552 287.4694519 C-195.65340746 281.63581921 -195.6548206 275.80240955 -195.64665998 269.96875204 C-195.64033943 265.2232069 -195.64151575 260.4777185 -195.64793205 255.73217392 C-195.64883371 255.05467884 -195.64973536 254.37718376 -195.65066434 253.67915853 C-195.6525157 252.3024679 -195.65437826 250.92577728 -195.6562519 249.54908668 C-195.67280097 236.66200263 -195.66413622 223.7750283 -195.64726632 210.88795088 C-195.63257549 199.12179174 -195.64719408 187.35588811 -195.67603648 175.58976187 C-195.70549503 163.48124017 -195.71638378 151.37283613 -195.70685428 139.2642802 C-195.70583183 137.89227035 -195.70483721 136.52026047 -195.70387077 135.14825058 C-195.70339438 134.47335358 -195.70291799 133.79845657 -195.70242717 133.10310815 C-195.70027135 128.36964843 -195.71002262 123.63630117 -195.7246418 118.90286636 C-195.74304999 112.51851955 -195.73697669 106.13464592 -195.7124424 99.75032425 C-195.70745083 97.41434462 -195.71088094 95.07832862 -195.72359085 92.74237823 C-195.80356088 76.77512004 -195.15002667 64.12738415 -184.25341797 51.46264648 C-180.86923367 48.11485127 -177.20754952 45.63650797 -173.07373047 43.30639648 C-172.08373047 42.72889648 -171.09373047 42.15139648 -170.07373047 41.55639648 C-161.49064961 37.98011279 -153.08363479 38.02887407 -143.92504883 38.0793457 C-142.51487232 38.07991082 -141.10469522 38.07959131 -139.69451904 38.07846069 C-135.89140186 38.07789008 -132.08841247 38.08959679 -128.28532481 38.10360861 C-124.30151576 38.11616493 -120.31770335 38.11729032 -116.33387756 38.11965942 C-108.80117299 38.12585985 -101.2685269 38.14225109 -93.73584801 38.1623584 C-85.15539967 38.1847623 -76.57494844 38.1957221 -67.99447811 38.20574927 C-50.35419581 38.22661868 -32.71396785 38.26176653 -15.07373047 38.30639648 C-15.09729614 36.93704956 -15.09729614 36.93704956 -15.12133789 35.54003906 C-15.17260016 32.13877638 -15.21014486 28.73792685 -15.23852539 25.33642578 C-15.25357113 23.86695866 -15.27401285 22.39753614 -15.30004883 20.92822266 C-15.33662002 18.81067879 -15.35349848 16.69373084 -15.36669922 14.57592773 C-15.39026489 12.66710815 -15.39026489 12.66710815 -15.41430664 10.71972656 C-15.04671679 7.03565935 -14.31348164 5.21902303 -12.07373047 2.30639648 C-8.09566401 -0.34564782 -4.62027957 0.0034936 0 0 Z M5.92626953 21.30639648 C5.92626953 26.91639648 5.92626953 32.52639648 5.92626953 38.30639648 C27.70626953 38.30639648 49.48626953 38.30639648 71.92626953 38.30639648 C71.92626953 32.69639648 71.92626953 27.08639648 71.92626953 21.30639648 C50.14626953 21.30639648 28.36626953 21.30639648 5.92626953 21.30639648 Z M-169.82373047 68.18139648 C-174.16858478 74.21591636 -174.3672583 79.7489487 -174.34788513 86.92010498 C-174.35312181 87.88189423 -174.35835849 88.84368348 -174.36375386 89.83461785 C-174.37874316 93.05409408 -174.37945878 96.27341121 -174.38012695 99.49291992 C-174.38774916 101.80267607 -174.39617676 104.11242967 -174.40534973 106.42218018 C-174.4272958 112.69502843 -174.43609383 118.96782794 -174.44117618 125.24071026 C-174.44481968 129.16088883 -174.45105973 133.08105463 -174.45817757 137.00122833 C-174.4776308 147.86508387 -174.4941455 158.72892639 -174.4970541 169.59280014 C-174.49724167 170.28743005 -174.49742924 170.98205996 -174.49762249 171.69773926 C-174.49798873 173.1057868 -174.49835243 174.51383434 -174.49871361 175.92188188 C-174.49889642 176.62079319 -174.49907923 177.31970449 -174.49926758 178.03979492 C-174.49944813 178.73956389 -174.49962868 179.43933287 -174.4998147 180.16030696 C-174.50335531 191.49554259 -174.5303731 202.83058814 -174.56776547 214.16575786 C-174.60588964 225.81643727 -174.62477122 237.46701333 -174.62551361 249.11775613 C-174.62630637 255.65402139 -174.63504502 262.19004133 -174.66351128 268.72624969 C-174.68969446 274.87575235 -174.69189519 281.02480632 -174.67585564 287.17433929 C-174.67404137 289.42773416 -174.68072972 291.68115484 -174.69667435 293.93449402 C-174.71716102 297.01844206 -174.70656691 300.1008241 -174.6884613 303.18475342 C-174.70826126 304.51231742 -174.70826126 304.51231742 -174.72846121 305.86670089 C-174.63982811 312.50739919 -172.80807817 317.78815692 -169.07373047 323.30639648 C-163.52955962 328.52157839 -159.2279046 330.42912682 -151.57368946 330.44061756 C-150.90740547 330.44296979 -150.24112148 330.44532202 -149.55464706 330.44774553 C-147.30609393 330.45444024 -145.05759852 330.45397717 -142.80903625 330.4535675 C-141.18697639 330.45686584 -139.56491734 330.46059134 -137.94285935 330.46470898 C-133.47286099 330.47474058 -129.00287605 330.47844764 -124.53286803 330.48109829 C-119.71676602 330.4849979 -114.90067468 330.49457646 -110.08457947 330.50331116 C-98.4475761 330.52308509 -86.81057185 330.53314287 -75.17355588 330.54203895 C-69.69600208 330.54642025 -64.21844926 330.55178746 -58.74089622 330.55702782 C-40.53665651 330.57404087 -22.33241741 330.58853568 -4.12817097 330.59577656 C0.59725126 330.59768651 5.32267349 330.59960683 10.0480957 330.6015625 C11.22260294 330.60204624 12.39711017 330.60252998 13.60720853 330.60302838 C32.63909725 330.61133103 51.67092316 330.63667158 70.70278444 330.66914318 C90.23405365 330.70219569 109.76529092 330.72022368 129.29658824 330.7234208 C140.26607552 330.72558755 151.23547121 330.73436036 162.20493126 330.75988197 C171.5458833 330.78156425 180.8867215 330.78965157 190.22769585 330.77991519 C194.99424897 330.77536335 199.76056711 330.77730805 204.52708817 330.79667664 C208.89143553 330.81425797 213.2553756 330.81335161 217.61972699 330.79777934 C219.19783606 330.79539561 220.77597296 330.79976643 222.35403939 330.81160799 C233.72839259 330.90417223 233.72839259 330.90417223 243.92626953 326.30639648 C249.90479913 320.32786689 252.2481843 314.531105 252.33216184 306.2679311 C252.32314678 304.93032886 252.32314678 304.93032886 252.31394958 303.56570435 C252.31933512 302.60235511 252.32472066 301.63900587 252.3302694 300.64646423 C252.3445441 297.4276713 252.3374463 294.20928989 252.33032227 290.99047852 C252.3360261 288.67895172 252.34299041 286.36742774 252.35112 284.0559082 C252.36906562 277.7831506 252.36788024 271.51053278 252.36217761 265.23775721 C252.3590876 259.99917209 252.36517618 254.7606139 252.37121636 249.52203262 C252.38606785 236.45567338 252.38244423 223.38939263 252.37035305 210.32303368 C252.36042328 198.98720856 252.37335806 187.65154673 252.39728724 176.3157468 C252.4216974 164.66390461 252.43088191 153.0121452 252.42463452 141.36027801 C252.42126433 134.82355007 252.42368423 128.28695701 252.44088554 121.75024796 C252.45635733 115.60240822 252.4523961 109.45488005 252.4335804 103.30705261 C252.42989513 101.05324742 252.43300113 98.79941913 252.44346619 96.54563522 C252.45668164 93.46375062 252.44512285 90.38289663 252.42747498 87.30105591 C252.43707998 86.41378252 252.44668499 85.52650913 252.45658106 84.61234868 C252.37671424 77.81171281 250.93104619 71.49592317 246.14697737 66.41770375 C239.42874755 60.37063234 233.17956884 59.18320747 224.21325874 59.17776203 C223.56039695 59.17600899 222.90753517 59.17425596 222.23488969 59.1724498 C220.05005521 59.16780264 217.86528765 59.17025197 215.68045044 59.17268372 C214.09704976 59.1708151 212.51364954 59.1685142 210.93025005 59.16581839 C206.58104144 59.15970032 202.23185205 59.159834 197.88264012 59.16101277 C193.19133918 59.16121677 188.50004441 59.15569809 183.80874634 59.1509552 C174.61864901 59.14264824 165.4285581 59.13990035 156.23845734 59.13934282 C148.7691785 59.13886772 141.29990179 59.13681327 133.83062363 59.1336422 C112.65698584 59.1248358 91.48335313 59.12022284 70.3097135 59.12097267 C69.1682014 59.12101263 68.02668931 59.12105258 66.85058594 59.12109375 C65.13622907 59.12115507 65.13622907 59.12115507 63.38723873 59.12121763 C44.85995115 59.12162418 26.33268388 59.11205225 7.80540217 59.09795538 C-11.21519658 59.08359726 -30.23578542 59.07668488 -49.25638974 59.07754916 C-59.93628429 59.07788131 -70.61615754 59.07512647 -81.29604721 59.06437111 C-90.38804042 59.05527357 -99.48000267 59.05308475 -108.57199846 59.05988053 C-113.21091332 59.06314939 -117.84976875 59.06318919 -122.48867798 59.05452728 C-126.73623103 59.04667766 -130.98367737 59.04807797 -135.23122777 59.05681141 C-136.76684729 59.05834978 -138.30247472 59.05651757 -139.83808492 59.05095134 C-151.69716195 59.01081595 -161.12087657 59.08295831 -169.82373047 68.18139648 Z M5.92626953 352.30639648 C5.92626953 398.17639648 5.92626953 444.04639648 5.92626953 491.30639648 C27.70626953 491.30639648 49.48626953 491.30639648 71.92626953 491.30639648 C71.92626953 445.43639648 71.92626953 399.56639648 71.92626953 352.30639648 C50.14626953 352.30639648 28.36626953 352.30639648 5.92626953 352.30639648 Z " fill="#FFFFFF" transform="translate(217.07373046875,-0.306396484375)"/>
<path d="M0 0 C1.39025391 -0.03287109 1.39025391 -0.03287109 2.80859375 -0.06640625 C6.62823981 0.80588171 7.96855606 2.65627399 10.5625 5.5625 C12.49121094 8.66870117 12.49121094 8.66870117 14.296875 12.10546875 C14.62036926 12.71513992 14.94386353 13.3248111 15.27716064 13.95295715 C16.29757939 15.88089363 17.30516049 17.81520343 18.3125 19.75 C19.00307046 21.05968583 19.69446942 22.36893516 20.38671875 23.67773438 C24.78754511 32.01259023 24.78754511 32.01259023 26.5625 35.5625 C26.57708252 34.60883545 26.59166504 33.6551709 26.60668945 32.67260742 C26.66467792 29.13316415 26.74190958 25.59435676 26.82495117 22.05541992 C26.85819818 20.52394941 26.88623093 18.99235644 26.90893555 17.46069336 C26.94248718 15.25842113 26.9947991 13.05727088 27.05078125 10.85546875 C27.05717117 10.17099167 27.0635611 9.48651459 27.07014465 8.78129578 C27.15837613 5.92657779 27.25444155 3.9967246 28.93237305 1.6315918 C31.32127282 0.06487139 33.2331908 0.16468299 36.0625 0.1875 C37.0215625 0.17976562 37.980625 0.17203125 38.96875 0.1640625 C41.5625 0.5625 41.5625 0.5625 43.19935608 1.66748047 C45.23734018 4.50065135 44.95131759 6.81905184 44.96655273 10.28125 C44.97341599 10.95961914 44.98027924 11.63798828 44.98735046 12.33691406 C45.00565027 14.57898901 45.00177718 16.82036642 44.99609375 19.0625 C45.00065372 20.62044503 45.00595874 22.17838805 45.01197815 23.73632812 C45.02091521 27.00138522 45.01847912 30.26619779 45.00854492 33.53125 C44.99704809 37.71813186 45.01727374 41.90417123 45.04646206 46.09094238 C45.06479529 49.30799735 45.06453754 52.52484928 45.05882454 55.74194336 C45.058671 57.28573794 45.06474205 58.82954601 45.07711601 60.37329102 C45.09197291 62.53065087 45.08139124 64.68643978 45.06420898 66.84375 C45.06404282 68.07158203 45.06387665 69.29941406 45.06370544 70.56445312 C44.5625 73.5625 44.5625 73.5625 42.66981506 75.4597168 C40.26471741 76.7183332 38.76337365 76.93512219 36.0625 76.875 C35.3096875 76.87113281 34.556875 76.86726563 33.78125 76.86328125 C31.14917321 76.50646802 29.79717736 76.0313069 27.5625 74.5625 C26.15318527 72.45082142 24.9526071 70.43396716 23.77734375 68.19921875 C23.43498184 67.57022171 23.09261993 66.94122467 22.73988342 66.29316711 C21.64931359 64.28430454 20.57437907 62.26756015 19.5 60.25 C18.41861343 58.24515511 17.33412809 56.242009 16.24940491 54.2389679 C15.57664466 52.99383405 14.90644728 51.74731087 14.23924255 50.49919128 C12.43491351 47.12912095 10.55839284 43.82282869 8.5625 40.5625 C8.5531543 41.54645752 8.54380859 42.53041504 8.53417969 43.54418945 C8.4943012 47.1955286 8.4285502 50.84602319 8.35498047 54.49682617 C8.32675807 56.07679392 8.30554975 57.65690318 8.29150391 59.23706055 C8.27009035 61.50903845 8.22345466 63.77931271 8.171875 66.05078125 C8.17003204 67.11030754 8.17003204 67.11030754 8.16815186 68.1912384 C8.07072432 71.45448852 7.98569084 73.13185634 5.64941406 75.50927734 C2.27550046 77.21202223 -0.74856743 77.0094138 -4.4375 76.5625 C-7.24759519 75.55374788 -8.10447708 75.22854583 -9.4375 72.5625 C-9.54981391 70.42938587 -9.59685439 68.29273427 -9.61450195 66.15673828 C-9.62107315 65.4996286 -9.62764435 64.84251892 -9.63441467 64.16549683 C-9.65414782 61.98793426 -9.66580953 59.81044062 -9.67578125 57.6328125 C-9.67985678 56.88942501 -9.6839323 56.14603752 -9.68813133 55.38012314 C-9.70899107 51.44628934 -9.72329378 47.51249043 -9.73266602 43.57861328 C-9.74373694 39.51406167 -9.77814423 35.45005657 -9.81783772 31.38569832 C-9.84397145 28.26129126 -9.85235486 25.13701514 -9.85594749 22.01250839 C-9.86082107 20.51417215 -9.87245709 19.01584206 -9.89098549 17.51761246 C-9.91531238 15.4203166 -9.91442503 13.32444427 -9.9074707 11.22705078 C-9.91333694 10.03395294 -9.91920319 8.8408551 -9.92524719 7.61160278 C-8.9911766 1.77235394 -5.60510336 -0.00777407 0 0 Z " fill="#FFFFFF" transform="translate(274.4375,209.4375)"/>
<path d="M0 0 C1.09573586 -0.0099852 1.09573586 -0.0099852 2.21360779 -0.02017212 C3.76453128 -0.03031029 5.31549849 -0.03498878 6.86645508 -0.03466797 C9.21316258 -0.03900169 11.55792741 -0.07519325 13.90429688 -0.11328125 C23.69627098 -0.18782001 31.68769142 0.37695877 39.12109375 7.3359375 C43.86391388 13.51877823 44.17131959 21.60096438 43.24609375 29.0859375 C41.72339133 36.00822283 37.46035762 40.48476159 31.68359375 44.3359375 C32.05234619 44.93543213 32.42109863 45.53492676 32.80102539 46.15258789 C34.46932313 48.88960999 36.10772045 51.64340753 37.74609375 54.3984375 C38.32681641 55.34138672 38.90753906 56.28433594 39.50585938 57.25585938 C44.17622072 65.18718307 44.17622072 65.18718307 43.69140625 69.37109375 C42.4099814 73.14086685 41.11551359 74.35305048 37.68359375 76.3359375 C34.68359375 77.3359375 34.68359375 77.3359375 31.68359375 77.3359375 C26.15077703 74.11302611 24.17379836 68.96874334 21.55859375 63.3984375 C20.70351918 61.61767409 19.84679628 59.83770105 18.98828125 58.05859375 C18.39418457 56.81746826 18.39418457 56.81746826 17.78808594 55.55126953 C16.63546199 53.16689421 16.63546199 53.16689421 14.87890625 50.33203125 C13.68359375 48.3359375 13.68359375 48.3359375 13.68359375 46.3359375 C11.70359375 46.3359375 9.72359375 46.3359375 7.68359375 46.3359375 C7.69406738 47.10784424 7.70454102 47.87975098 7.71533203 48.67504883 C7.75685829 52.16614538 7.78290932 55.65718999 7.80859375 59.1484375 C7.82535156 60.36337891 7.84210938 61.57832031 7.859375 62.83007812 C7.86582031 63.99345703 7.87226563 65.15683594 7.87890625 66.35546875 C7.88937988 67.42901611 7.89985352 68.50256348 7.91064453 69.60864258 C7.68359375 72.3359375 7.68359375 72.3359375 5.68359375 75.3359375 C2.04039978 76.55033549 -1.5248395 76.94724577 -5.31640625 76.3359375 C-7.41323853 75.24208069 -7.41323853 75.24208069 -9.31640625 73.3359375 C-9.81088257 70.29319763 -9.81088257 70.29319763 -9.80224609 66.50952148 C-9.80604279 65.81979248 -9.80983948 65.13006348 -9.81375122 64.41943359 C-9.82116027 62.13983673 -9.7997736 59.86151477 -9.77734375 57.58203125 C-9.77495966 55.99927419 -9.77405393 54.41651427 -9.77456665 52.83375549 C-9.7714382 49.51732662 -9.75486849 46.20132993 -9.72802734 42.88500977 C-9.69401944 38.62872674 -9.68639948 34.37291813 -9.68791771 30.11651516 C-9.68737457 26.84889679 -9.67641691 23.58138266 -9.66191483 20.3137989 C-9.65554003 18.74407808 -9.65160634 17.17434542 -9.65012741 15.60461235 C-9.64580308 13.41385536 -9.62832251 11.22360711 -9.60693359 9.03295898 C-9.59931 7.78514145 -9.5916864 6.53732391 -9.58383179 5.25169373 C-9.03153555 -0.77002439 -4.94132816 0.01559613 0 0 Z M7.68359375 15.3359375 C7.68359375 21.2759375 7.68359375 27.2159375 7.68359375 33.3359375 C10.49890625 33.42875 10.49890625 33.42875 13.37109375 33.5234375 C14.95470703 33.57564453 14.95470703 33.57564453 16.5703125 33.62890625 C20.0742499 33.29917563 21.88057886 32.42178462 24.68359375 30.3359375 C25.83352741 28.03607019 25.91528665 26.52124662 25.99609375 23.9609375 C26.03347656 23.19007813 26.07085937 22.41921875 26.109375 21.625 C25.49802159 18.33827433 24.39717075 17.2611398 21.68359375 15.3359375 C18.18003025 14.85269544 18.18003025 14.85269544 14.43359375 15.0859375 C11.09234375 15.2096875 11.09234375 15.2096875 7.68359375 15.3359375 Z " fill="#FFFFFF" transform="translate(142.31640625,209.6640625)"/>
<path d="M0 0 C1.09573586 -0.0099852 1.09573586 -0.0099852 2.21360779 -0.02017212 C3.76453128 -0.03031029 5.31549849 -0.03498878 6.86645508 -0.03466797 C9.21316258 -0.03900169 11.55792741 -0.07519325 13.90429688 -0.11328125 C30.61445924 -0.24036449 30.61445924 -0.24036449 37.24804688 5.74829102 C42.82082592 11.93839605 43.08048762 17.89320967 42.921875 25.890625 C42.54133185 31.39290461 41.79214799 35.29909739 37.73828125 39.21508789 C37.01898438 39.82344482 36.2996875 40.43180176 35.55859375 41.05859375 C34.83414063 41.67613525 34.1096875 42.29367676 33.36328125 42.92993164 C32.80898438 43.39391357 32.2546875 43.85789551 31.68359375 44.3359375 C32.05234619 44.97096191 32.42109863 45.60598633 32.80102539 46.26025391 C34.46671203 49.15088846 36.10648389 52.0554389 37.74609375 54.9609375 C38.32681641 55.95996094 38.90753906 56.95898438 39.50585938 57.98828125 C40.05048828 58.96152344 40.59511719 59.93476563 41.15625 60.9375 C41.91820679 62.27288818 41.91820679 62.27288818 42.69555664 63.63525391 C43.92236421 66.98858856 43.64832705 68.92810232 42.68359375 72.3359375 C39.35843748 75.8511027 36.51125102 77.13050528 31.68359375 77.3359375 C28.60919171 76.37471006 27.72538428 75.40018369 25.94433594 72.66210938 C25.37875977 71.55416016 24.81318359 70.44621094 24.23046875 69.3046875 C23.92538391 68.71296753 23.62029907 68.12124756 23.30596924 67.51159668 C22.66528217 66.26362895 22.03019661 65.01277157 21.40039062 63.75927734 C20.43409242 61.83692955 19.45112983 59.92387598 18.46484375 58.01171875 C13.68359375 48.65888213 13.68359375 48.65888213 13.68359375 46.3359375 C11.70359375 46.3359375 9.72359375 46.3359375 7.68359375 46.3359375 C7.69144897 47.44835815 7.69144897 47.44835815 7.69946289 48.58325195 C7.72022989 51.93830521 7.73325305 55.29334494 7.74609375 58.6484375 C7.75447266 59.81568359 7.76285156 60.98292969 7.77148438 62.18554688 C7.77631836 63.86293945 7.77631836 63.86293945 7.78125 65.57421875 C7.78910522 67.121698 7.78910522 67.121698 7.79711914 68.70043945 C7.68359375 71.3359375 7.68359375 71.3359375 6.68359375 74.3359375 C3.60521884 76.67550243 0.39864338 76.60489132 -3.31640625 76.69921875 C-6.10392727 76.19289169 -7.30532545 75.34552049 -9.31640625 73.3359375 C-9.81088257 70.29319763 -9.81088257 70.29319763 -9.80224609 66.50952148 C-9.80604279 65.81979248 -9.80983948 65.13006348 -9.81375122 64.41943359 C-9.82116027 62.13983673 -9.7997736 59.86151477 -9.77734375 57.58203125 C-9.77495966 55.99927419 -9.77405393 54.41651427 -9.77456665 52.83375549 C-9.7714382 49.51732662 -9.75486849 46.20132993 -9.72802734 42.88500977 C-9.69401944 38.62872674 -9.68639948 34.37291813 -9.68791771 30.11651516 C-9.68737457 26.84889679 -9.67641691 23.58138266 -9.66191483 20.3137989 C-9.65554003 18.74407808 -9.65160634 17.17434542 -9.65012741 15.60461235 C-9.64580308 13.41385536 -9.62832251 11.22360711 -9.60693359 9.03295898 C-9.59931 7.78514145 -9.5916864 6.53732391 -9.58383179 5.25169373 C-9.03153555 -0.77002439 -4.94132816 0.01559613 0 0 Z M7.68359375 15.3359375 C7.68359375 21.2759375 7.68359375 27.2159375 7.68359375 33.3359375 C10.49890625 33.42875 10.49890625 33.42875 13.37109375 33.5234375 C14.95470703 33.57564453 14.95470703 33.57564453 16.5703125 33.62890625 C20.0742499 33.29917563 21.88057886 32.42178462 24.68359375 30.3359375 C26.25782128 27.18748244 26.35287718 23.74375678 25.68359375 20.3359375 C24.22861267 17.47131262 24.22861267 17.47131262 21.68359375 15.3359375 C18.1838424 14.73208058 18.1838424 14.73208058 14.43359375 15.0234375 C12.20609375 15.1265625 9.97859375 15.2296875 7.68359375 15.3359375 Z " fill="#FFFFFF" transform="translate(307.31640625,106.6640625)"/>
<path d="M0 0 C5.58804039 5.11246249 8.0086314 11.95352237 8.40405273 19.44311523 C8.43014357 20.98141834 8.4394196 22.52008043 8.43359375 24.05859375 C8.4388356 24.88778824 8.44407745 25.71698273 8.44947815 26.57130432 C8.45585407 28.31160369 8.45461937 30.05194641 8.44604492 31.79223633 C8.43753056 34.42804007 8.46636379 37.0616748 8.49804688 39.69726562 C8.58029631 58.98652738 8.58029631 58.98652738 2.24975586 65.91577148 C-4.48612961 72.24034981 -12.04229888 72.9042526 -21 73 C-28.18485382 72.32035167 -34.2837445 69.86308012 -39.3125 64.5625 C-44.84717066 56.15800011 -44.18636277 46.69265625 -44.18530273 36.99755859 C-44.18748014 34.77031069 -44.20564329 32.54356619 -44.22460938 30.31640625 C-44.30810946 9.76446275 -44.30810946 9.76446275 -38.4921875 2.46875 C-29.15862951 -6.71820761 -10.72729395 -6.77846724 0 0 Z M-24.4375 12.6875 C-28.47823628 18.6677897 -27.183971 26.96521879 -27.1875 33.875 C-27.19974609 35.12925781 -27.21199219 36.38351563 -27.22460938 37.67578125 C-27.3088183 46.54833823 -27.3088183 46.54833823 -25 55 C-21.45647286 57.71945106 -19.75502539 58.08957928 -15.3125 57.5625 C-11.15144216 55.59973687 -10.65546977 54.22485207 -9 50 C-8.54309205 46.4292845 -8.54309205 46.4292845 -8.6015625 42.625 C-8.59869232 41.93744629 -8.59582214 41.24989258 -8.59286499 40.54150391 C-8.59083459 39.09602021 -8.59629249 37.65050838 -8.60888672 36.20507812 C-8.62495704 34.00587917 -8.60900518 31.80851752 -8.58984375 29.609375 C-8.59182637 28.19791265 -8.59567043 26.78645144 -8.6015625 25.375 C-8.60494629 24.10398438 -8.60833008 22.83296875 -8.61181641 21.5234375 C-9.03290592 17.70132183 -9.9940697 15.26139659 -12 12 C-16.18837454 9.90581273 -20.68539854 10.08989129 -24.4375 12.6875 Z " fill="#FFFFFF" transform="translate(272,111)"/>
<path d="M0 0 C1.32091644 0.00045319 1.32091644 0.00045319 2.66851807 0.00091553 C4.08121979 0.03188324 4.08121979 0.03188324 5.52246094 0.06347656 C6.49342712 0.06913635 7.46439331 0.07479614 8.46478271 0.08062744 C11.56263763 0.10299845 14.65933127 0.15319683 17.75683594 0.20410156 C19.85838172 0.2241656 21.95994565 0.24241653 24.06152344 0.25878906 C29.21040763 0.30286576 34.35842497 0.37189898 39.50683594 0.45410156 C41.62359138 4.27602112 41.82589375 7.06705669 41.50683594 11.45410156 C39.50683594 14.45410156 39.50683594 14.45410156 36.50683594 15.45410156 C34.36889069 15.53748197 32.22841584 15.56143903 30.08886719 15.55175781 C28.83525391 15.54853516 27.58164063 15.5453125 26.29003906 15.54199219 C24.97970703 15.53361328 23.669375 15.52523437 22.31933594 15.51660156 C20.98405113 15.51158474 19.64876453 15.50702215 18.31347656 15.50292969 C15.04457714 15.49112861 11.77570092 15.47319292 8.50683594 15.45410156 C8.50683594 20.73410156 8.50683594 26.01410156 8.50683594 31.45410156 C9.68761719 31.40769531 10.86839844 31.36128906 12.08496094 31.31347656 C13.64222728 31.27595207 15.19952102 31.23955263 16.75683594 31.20410156 C17.53414062 31.17058594 18.31144531 31.13707031 19.11230469 31.10253906 C22.89031178 31.03795774 24.87929655 31.02326795 28.06152344 33.20800781 C29.70033731 35.75481316 29.90008567 36.7030153 29.38183594 39.64160156 C28.94871094 41.52878906 28.94871094 41.52878906 28.50683594 43.45410156 C26.21029894 44.60237006 24.92370427 44.56971331 22.37402344 44.55175781 C21.56835938 44.54853516 20.76269531 44.5453125 19.93261719 44.54199219 C18.66998047 44.52942383 18.66998047 44.52942383 17.38183594 44.51660156 C16.10759766 44.50983398 16.10759766 44.50983398 14.80761719 44.50292969 C12.70732685 44.4911303 10.60707263 44.47319462 8.50683594 44.45410156 C8.50683594 50.06410156 8.50683594 55.67410156 8.50683594 61.45410156 C10.63765625 61.40769531 12.76847656 61.36128906 14.96386719 61.31347656 C17.02902851 61.2822762 19.09416352 61.25799147 21.15942383 61.234375 C22.5941138 61.21426631 24.02872187 61.18697483 25.46313477 61.15234375 C27.52608433 61.10378696 29.58795025 61.0811275 31.65136719 61.06347656 C33.51305542 61.03205566 33.51305542 61.03205566 35.41235352 61 C38.50683594 61.45410156 38.50683594 61.45410156 40.41186523 63.25976562 C42.01621028 66.47489456 41.88600582 68.91518267 41.50683594 72.45410156 C40.58300781 74.64404297 40.58300781 74.64404297 38.50683594 76.45410156 C35.31354164 77.05032563 32.15248635 76.96587959 28.91308594 76.91503906 C27.97001587 76.91412262 27.0269458 76.91320618 26.05529785 76.91226196 C24.06139086 76.90621995 22.0674932 76.89045598 20.07373047 76.86572266 C17.0185407 76.82924133 13.96456438 76.82470306 10.90917969 76.82519531 C8.97297127 76.81536329 7.03677108 76.80370591 5.10058594 76.79003906 C4.18490845 76.78781342 3.26923096 76.78558777 2.32580566 76.78329468 C1.474823 76.77053497 0.62384033 76.75777527 -0.25292969 76.74462891 C-1.00110962 76.73700531 -1.74928955 76.72938171 -2.5201416 76.7215271 C-4.49316406 76.45410156 -4.49316406 76.45410156 -7.49316406 74.45410156 C-8.60853407 71.10799155 -8.6405316 68.55328852 -8.67016602 65.02661133 C-8.68002281 64.05535812 -8.68002281 64.05535812 -8.69007874 63.06448364 C-8.70976716 60.9248238 -8.72146222 58.78523389 -8.73144531 56.64550781 C-8.73552084 55.91406996 -8.73959637 55.1826321 -8.74379539 54.42902946 C-8.76463379 50.56002969 -8.77894699 46.69106519 -8.78833008 42.82202148 C-8.79941015 38.82587615 -8.83383399 34.83028527 -8.87350178 30.83433628 C-8.89963362 27.76054341 -8.90801864 24.68688362 -8.91161156 21.61298943 C-8.91648385 20.13977232 -8.92811625 18.66656141 -8.94664955 17.19345284 C-8.97097763 15.13218105 -8.97008924 13.07235747 -8.96313477 11.01098633 C-8.96900101 9.83866959 -8.97486725 8.66635284 -8.98091125 7.45851135 C-8.49316406 4.45410156 -8.49316406 4.45410156 -6.74461365 2.07267761 C-4.20557713 0.24735418 -3.08578656 -0.03546881 0 0 Z " fill="#FFFFFF" transform="translate(209.4931640625,209.5458984375)"/>
<path d="M0 0 C0.87423111 -0.00938095 1.74846222 -0.0187619 2.64918518 -0.02842712 C3.5898735 -0.01719315 4.53056183 -0.00595917 5.49975586 0.00561523 C6.46739365 0.00416 7.43503143 0.00270477 8.43199158 0.00120544 C10.47715263 0.0028654 12.52232604 0.01443746 14.56738281 0.03515625 C17.7061843 0.0641313 20.84329989 0.05576329 23.98217773 0.04272461 C25.96721202 0.04896116 27.95224096 0.05735144 29.93725586 0.06811523 C30.87996841 0.0651796 31.82268097 0.06224396 32.79396057 0.05921936 C34.10057899 0.07824562 34.10057899 0.07824562 35.43359375 0.09765625 C36.20175919 0.10305923 36.96992462 0.10846222 37.7613678 0.11402893 C39.65209961 0.50170898 39.65209961 0.50170898 41.65209961 3.50170898 C42.33025261 10.62231546 42.33025261 10.62231546 40.03051758 13.60449219 C36.90166487 16.10031588 35.10361074 15.96446373 31.13647461 15.89233398 C29.88608398 15.87944336 28.63569336 15.86655273 27.34741211 15.85327148 C25.39448242 15.80299805 25.39448242 15.80299805 23.40209961 15.75170898 C22.08467773 15.73366211 20.76725586 15.71561523 19.40991211 15.69702148 C16.15699805 15.6498778 12.90445744 15.57813515 9.65209961 15.50170898 C9.65209961 20.78170898 9.65209961 26.06170898 9.65209961 31.50170898 C11.54895508 31.43209961 11.54895508 31.43209961 13.48413086 31.36108398 C15.14426352 31.32356686 16.80442169 31.28716664 18.46459961 31.25170898 C19.29797852 31.21819336 20.13135742 31.18467773 20.98999023 31.15014648 C27.14475822 31.05127471 27.14475822 31.05127471 29.70678711 33.32592773 C30.96756456 36.2277998 30.9852868 38.36974942 30.65209961 41.50170898 C29.99209961 42.49170898 29.33209961 43.48170898 28.65209961 44.50170898 C26.6809082 44.84228516 26.6809082 44.84228516 24.30053711 44.79467773 C23.44975586 44.78500977 22.59897461 44.7753418 21.72241211 44.76538086 C20.83295898 44.74024414 19.94350586 44.71510742 19.02709961 44.68920898 C18.12991211 44.67567383 17.23272461 44.66213867 16.30834961 44.64819336 C14.08900172 44.61277823 11.87084773 44.5633936 9.65209961 44.50170898 C9.67304688 45.36449463 9.69399414 46.22728027 9.71557617 47.11621094 C9.78377863 50.31978409 9.83391275 53.52298714 9.87182617 56.72705078 C9.89193235 58.11324237 9.91922206 59.49934923 9.95385742 60.88525391 C10.00241186 62.87812805 10.02293933 64.87162288 10.04272461 66.86499023 C10.06367188 68.06422119 10.08461914 69.26345215 10.10620117 70.49902344 C9.65209961 73.50170898 9.65209961 73.50170898 7.75268555 75.39379883 C4.38037474 77.17245369 1.36811825 76.94427383 -2.34790039 76.50170898 C-4.78540039 75.68920898 -4.78540039 75.68920898 -6.34790039 74.50170898 C-7.46462121 71.15154652 -7.48845368 68.60516997 -7.5090332 65.07421875 C-7.51399811 64.42671661 -7.51896301 63.77921448 -7.52407837 63.11209106 C-7.53867066 60.97242161 -7.54549633 58.83282625 -7.55102539 56.69311523 C-7.55677837 55.20482888 -7.56253609 53.71654254 -7.56829834 52.22825623 C-7.57879935 49.10871028 -7.58464819 45.98919004 -7.58813477 42.86962891 C-7.59362384 38.87358493 -7.61766412 34.87788095 -7.64610672 30.8819437 C-7.66473344 27.80815131 -7.66993866 24.73444091 -7.67147064 21.66059685 C-7.67449662 20.18739903 -7.68252335 18.71420264 -7.69565582 17.24106026 C-7.7127211 15.17997472 -7.71083578 13.11972137 -7.7043457 11.05859375 C-7.70799133 9.88627701 -7.71163696 8.71396027 -7.71539307 7.50611877 C-7.08467076 2.3496942 -5.26406782 0.00113754 0 0 Z " fill="#FFFFFF" transform="translate(175.347900390625,106.498291015625)"/>
<path d="M0 0 C2.17666626 -0.36076355 2.17666626 -0.36076355 4.90869141 -0.34057617 C6.44005234 -0.34023628 6.44005234 -0.34023628 8.00234985 -0.33988953 C9.10759003 -0.32440567 10.2128302 -0.30892181 11.3515625 -0.29296875 C12.4807309 -0.28872391 13.60989929 -0.28447906 14.77328491 -0.28010559 C18.39076273 -0.26327132 22.00768969 -0.22560975 25.625 -0.1875 C28.07290864 -0.17245934 30.52082598 -0.15876986 32.96875 -0.14648438 C38.9793556 -0.11335227 44.98963846 -0.06310579 51 0 C53.11332501 3.83934743 53.39370371 6.59051846 53 11 C51.9921875 13.203125 51.9921875 13.203125 50 15 C47.12961948 15.29561076 44.66245255 15.37943016 41.8125 15.25 C41.06291016 15.23195312 40.31332031 15.21390625 39.54101562 15.1953125 C37.6934629 15.14824109 35.84656841 15.07649766 34 15 C34.00444122 15.70743851 34.00888245 16.41487701 34.01345825 17.14375305 C34.0535248 23.80921379 34.08397919 30.47464095 34.10362434 37.14019489 C34.11406363 40.56706693 34.12822532 43.9938395 34.15087891 47.4206543 C34.17675686 51.35985119 34.18647162 55.29900774 34.1953125 59.23828125 C34.20563507 60.46960281 34.21595764 61.70092438 34.22659302 62.96955872 C34.22681961 64.68099312 34.22681961 64.68099312 34.22705078 66.42700195 C34.231492 67.432939 34.23593323 68.43887604 34.24050903 69.47529602 C34 72 34 72 32 75 C28.35680603 76.21439799 24.79156675 76.61130827 21 76 C18.90118408 74.83354187 18.90118408 74.83354187 17 73 C16.51898193 70.43733215 16.51898193 70.43733215 16.54589844 67.33520508 C16.54620056 66.17422806 16.54650269 65.01325104 16.54681396 63.8170929 C16.56745911 62.56389755 16.58810425 61.31070221 16.609375 60.01953125 C16.61503479 58.73640549 16.62069458 57.45327972 16.62652588 56.13127136 C16.64178512 52.72299955 16.68106779 49.31541161 16.7253418 45.90740967 C16.76628922 42.4286016 16.78453566 38.94968282 16.8046875 35.47070312 C16.84756297 28.64685482 16.9158169 21.82346025 17 15 C15.87980469 15.03480469 14.75960938 15.06960937 13.60546875 15.10546875 C12.13282749 15.13360839 10.66017002 15.16090837 9.1875 15.1875 C8.08051758 15.22520508 8.08051758 15.22520508 6.95117188 15.26367188 C1.48800035 15.33783257 1.48800035 15.33783257 -0.98901367 13.62304688 C-2.32509792 11.47808476 -2.36698111 10.01451278 -2.3125 7.5 C-2.30863281 6.7265625 -2.30476563 5.953125 -2.30078125 5.15625 C-2 3 -2 3 0 0 Z " fill="#FFFFFF" transform="translate(335,210)"/>
<path d="M0 0 C2.75569447 2.18159145 4.43588747 3.87177494 6 7 C6.10642856 8.8829321 6.14882656 10.76962021 6.16113281 12.65551758 C6.17074036 13.84047318 6.1803479 15.02542877 6.19024658 16.24629211 C6.19449646 17.53271103 6.19874634 18.81912994 6.203125 20.14453125 C6.20882507 21.46160568 6.21452515 22.77868011 6.22039795 24.13566589 C6.23090825 26.9274433 6.23675038 29.71919192 6.24023438 32.51098633 C6.24571235 36.08211892 6.26972477 39.65286893 6.29820633 43.22388172 C6.32135532 46.6349242 6.32328419 50.04591428 6.328125 53.45703125 C6.3404718 54.73737747 6.3528186 56.01772369 6.36553955 57.33686829 C6.36253845 58.53128036 6.35953735 59.72569244 6.35644531 60.95629883 C6.36009094 62.00505692 6.36373657 63.053815 6.36749268 64.13435364 C5.8135712 68.45374061 4.08505445 71.06995333 0.8125 73.875 C-2.91318734 75.36527494 -6.28794913 75.46232307 -10 74 C-12.54576553 72.35834484 -13.56386015 71.58983603 -15 69 C-15.76486096 64.31743522 -15.67967896 59.6375957 -15.62890625 54.90625 C-15.62973555 53.51289688 -15.63219723 52.11954386 -15.63621521 50.72619629 C-15.63906892 47.81081576 -15.62441582 44.89620532 -15.59692383 41.98095703 C-15.56284004 38.25157989 -15.56886233 34.5235791 -15.5875864 30.79413605 C-15.59817568 27.91836152 -15.58920145 25.04290502 -15.57420158 22.16716003 C-15.56903334 20.79250535 -15.56948508 19.41781726 -15.57574654 18.04316711 C-15.5812209 16.11922899 -15.55792188 14.19527461 -15.53344727 12.27148438 C-15.52724869 11.17848022 -15.52105011 10.08547607 -15.5146637 8.95935059 C-14.88089396 5.31513232 -13.54197343 3.63782663 -11 1 C-7.52736727 -0.73631636 -3.78806987 -0.60190402 0 0 Z " fill="#FFFFFF" transform="translate(276,409)"/>
<path d="M0 0 C3.47998516 2.00292479 5.7068445 4.12053349 7 8 C7.56584041 13.71281183 7.24101129 18.07846434 4 23 C-0.01858595 25.6790573 -3.27641721 25.69610694 -8 25 C-10.87029869 23.20606332 -12.49131638 22.01736724 -14 19 C-15.05532813 7.94920682 -15.05532813 7.94920682 -12.953125 4.06640625 C-8.93849066 0.08719515 -5.51261238 -0.55126124 0 0 Z " fill="#FFFFFF" transform="translate(275,375)"/>
</svg>
