<?xml version="1.0" encoding="UTF-8"?>
<svg version="1.1" xmlns="http://www.w3.org/2000/svg" width="512" height="512">
<path d="M0 0 C11.70988083 10.02335135 19.85799114 23.96895129 22.625 39.1875 C22.70059143 40.16489388 22.70059143 40.16489388 22.77770996 41.16203308 C23.20643105 46.66228181 24.45264845 50.87318417 26.9140625 55.78125 C27.24905762 56.47752502 27.58405273 57.17380005 27.92919922 57.89117432 C28.64939132 59.38465701 29.37557315 60.87526381 30.10723877 62.36315918 C31.67424139 65.55039379 33.21155115 68.75164563 34.75033569 71.95257568 C35.5445284 73.60449488 36.34013189 75.25573652 37.13711548 76.90631104 C40.97086945 84.85908871 44.62526602 92.88785422 48.25 100.9375 C53.18708933 111.8735222 58.20644546 122.76683475 63.3125 133.625 C63.93453927 134.94911373 64.55652869 136.27325087 65.1784668 137.59741211 C66.39415151 140.1851606 67.61005661 142.77280538 68.82617188 145.36035156 C69.27101929 146.30690613 69.27101929 146.30690613 69.72485352 147.27258301 C70.32866592 148.55709687 70.93267218 149.84151963 71.53686523 151.12585449 C73.55347168 155.41350914 75.56003027 159.7057246 77.5625 164 C78.33436646 165.63763306 78.33436646 165.63763306 79.12182617 167.30834961 C79.81755737 168.80507202 79.81755737 168.80507202 80.52734375 170.33203125 C80.93460693 171.20190674 81.34187012 172.07178223 81.76147461 172.96801758 C82.625 175.1875 82.625 175.1875 82.625 178.1875 C83.6905159 178.18083817 84.7560318 178.17417633 85.85383606 178.16731262 C95.93093568 178.10630585 106.00799747 178.06143379 116.08524036 178.03206348 C121.26515761 178.01645595 126.44492489 177.99530802 131.62475586 177.96118164 C136.63035733 177.92841224 141.63581521 177.9106101 146.64151573 177.90286827 C148.54434148 177.89735617 150.44716002 177.88659296 152.34992409 177.87030983 C170.7960645 177.71883664 186.46196589 180.39680043 200.37109375 193.703125 C209.33086666 203.57906187 214.77554584 215.564728 214.77217102 228.87683105 C214.77584771 229.65582402 214.7795244 230.43481698 214.7833125 231.23741579 C214.79433417 233.85034117 214.79819065 236.46322675 214.80200195 239.07617188 C214.80826791 240.94889451 214.81491482 242.8216159 214.82191467 244.69433594 C214.8429473 250.8482985 214.85331847 257.00226128 214.86328125 263.15625 C214.86732954 265.27706414 214.87144649 267.39787814 214.87563133 269.51869202 C214.89468372 279.48621745 214.90891289 289.45373548 214.9172433 299.42127562 C214.92700681 310.91298556 214.95330305 322.40450244 214.99374419 333.89614439 C215.02395238 342.78636189 215.03871676 351.6765242 215.04202431 360.56679201 C215.04437003 365.87240956 215.05326784 371.17782086 215.07848549 376.48338318 C215.10185256 381.48045691 215.1059648 386.47718988 215.09572411 391.4743042 C215.09523068 393.30114377 215.10149366 395.1280006 215.11528015 396.95478821 C215.24189629 414.7377271 211.28825752 428.73711263 198.8828125 442.0859375 C188.83372098 451.43959016 176.06950888 456.305603 162.44995689 456.31892776 C161.73498954 456.3209804 161.02002218 456.32303303 160.28338915 456.32514787 C157.88124075 456.3308143 155.47914976 456.32936106 153.07699585 456.32794189 C151.33985377 456.33052574 149.60271228 456.33353895 147.86557162 456.3369453 C143.08663799 456.34501635 138.30771938 456.34680493 133.52877975 456.34754276 C128.3765941 456.34939314 123.22441625 456.35694042 118.07223511 456.36367798 C106.80355801 456.37726278 95.53488447 456.3832863 84.26620054 456.38768864 C77.23017648 456.39045092 70.19415378 456.39468826 63.15813065 456.39919281 C43.67821273 456.41138588 24.19829591 456.42168498 4.71837425 456.4250679 C2.84804051 456.42539725 2.84804051 456.42539725 0.93992225 456.42573325 C-0.30995525 456.42595153 -1.55983275 456.42616981 -2.84758532 456.4263947 C-5.38032381 456.42683817 -7.91306229 456.42728473 -10.44580078 456.42773438 C-12.33029055 456.42806652 -12.33029055 456.42806652 -14.25285082 456.42840537 C-34.60821008 456.43235308 -54.96353353 456.44980612 -75.31887896 456.4730939 C-96.21641112 456.49680902 -117.11392532 456.50926983 -138.01147115 456.51043582 C-149.74503935 456.51135251 -161.4785609 456.51710334 -173.21211624 456.53525543 C-183.20399555 456.55065859 -193.1958138 456.5557756 -203.18770273 456.54751733 C-208.28471691 456.54361156 -213.38160814 456.54453695 -218.47860718 456.55857468 C-223.14828896 456.57131777 -227.81775543 456.57011242 -232.48743694 456.55798396 C-234.17320761 456.55602768 -235.85899355 456.55910222 -237.54474278 456.56782833 C-255.02476925 456.65255445 -270.0950607 453.13337692 -283.12109375 440.671875 C-292.08086666 430.79593813 -297.52554584 418.810272 -297.52217102 405.49816895 C-297.52584771 404.71917598 -297.5295244 403.94018302 -297.5333125 403.13758421 C-297.54433417 400.52465883 -297.54819065 397.91177325 -297.55200195 395.29882812 C-297.55826791 393.42610549 -297.56491482 391.5533841 -297.57191467 389.68066406 C-297.5929473 383.5267015 -297.60331847 377.37273872 -297.61328125 371.21875 C-297.61732954 369.09793586 -297.62144649 366.97712186 -297.62563133 364.85630798 C-297.64468372 354.88878255 -297.65891289 344.92126452 -297.6672433 334.95372438 C-297.67700681 323.46201444 -297.70330305 311.97049756 -297.74374419 300.47885561 C-297.77395238 291.58863811 -297.78871676 282.6984758 -297.79202431 273.80820799 C-297.79437003 268.50259044 -297.80326784 263.19717914 -297.82848549 257.89161682 C-297.85185256 252.89454309 -297.8559648 247.89781012 -297.84572411 242.9006958 C-297.84523068 241.07385623 -297.85149366 239.2469994 -297.86528015 237.42021179 C-297.9911425 219.74314066 -294.08788385 205.66463888 -281.7734375 192.359375 C-274.87326593 186.11101117 -266.45941172 181.33440199 -257.375 179.1875 C-256.68517532 179.01509293 -255.99535065 178.84268585 -255.28462219 178.66505432 C-251.45791507 178.03697947 -247.68657818 178.0565051 -243.82104492 178.07397461 C-242.97175415 178.07382858 -242.12246338 178.07368256 -241.24743652 178.0735321 C-238.45008763 178.07422681 -235.65280596 178.08199851 -232.85546875 178.08984375 C-230.9120538 178.0917095 -228.96863837 178.09313266 -227.02522278 178.09413147 C-221.91739599 178.09794429 -216.80959776 178.10776403 -211.70178223 178.11883545 C-206.48673896 178.12907613 -201.27169106 178.13363478 -196.05664062 178.13867188 C-185.82941455 178.1493874 -175.60220965 178.16644899 -165.375 178.1875 C-165.23772491 177.42777893 -165.10044983 176.66805786 -164.95901489 175.88531494 C-164.21370091 172.44239044 -162.82771973 169.59891592 -161.3046875 166.421875 C-160.99193375 165.76442291 -160.67917999 165.10697083 -160.35694885 164.42959595 C-159.68036658 163.00817709 -159.0013911 161.5878954 -158.32028198 160.16864014 C-156.48102913 156.33448155 -154.66081987 152.49130177 -152.83984375 148.6484375 C-152.46527542 147.85881622 -152.09070709 147.06919495 -151.70478821 146.25564575 C-147.98522445 138.39781955 -144.38940524 130.48602727 -140.8125 122.5625 C-136.15889745 112.26575778 -131.44589265 102.00035319 -126.6385498 91.77441406 C-125.69618906 89.76849561 -124.75645522 87.76136595 -123.81738281 85.75390625 C-120.86417234 79.44692931 -117.88187367 73.15732295 -114.8359375 66.89453125 C-114.00582153 65.1619104 -114.00582153 65.1619104 -113.15893555 63.39428711 C-112.1394122 61.2665252 -111.10577597 59.14543008 -110.05395508 57.03344727 C-106.97028094 50.54507532 -105.57136365 44.6351233 -104.84375 37.4855957 C-103.3959401 27.29889576 -98.23329683 18.46045782 -92.375 10.1875 C-91.653125 9.15625 -90.93125 8.125 -90.1875 7.0625 C-66.93934936 -19.22462458 -27.02802461 -20.44692827 0 0 Z M-75.4375 25.5 C-82.50337247 35.30104891 -84.21679802 45.22862335 -83.375 57.1875 C-81.61285581 67.71594133 -75.71070202 77.53595002 -67.375 84.1875 C-59.29539322 89.53987489 -51.29169437 92.75804702 -41.5625 92.625 C-40.77496338 92.61670166 -39.98742676 92.60840332 -39.17602539 92.59985352 C-26.27933578 92.2279736 -17.37268476 86.63765122 -8.625 77.4375 C-0.20500385 67.39224878 1.57690745 55.91088264 0.625 43.1875 C-1.00058306 35.3382561 -4.04734683 29.14275629 -9.375 23.1875 C-10.5196875 21.888125 -10.5196875 21.888125 -11.6875 20.5625 C-20.63159263 12.65841814 -31.54091765 7.20778867 -43.77734375 7.8046875 C-57.14470686 9.77461469 -66.57063475 15.5583632 -75.4375 25.5 Z M-97.375 83.1875 C-102.32074695 92.91979086 -107.06549086 102.70987334 -111.53274536 112.67074585 C-113.12861313 116.22803398 -114.73552106 119.78031758 -116.34375 123.33203125 C-116.67351334 124.06037674 -117.00327667 124.78872223 -117.34303284 125.53913879 C-121.55681684 134.82259668 -125.90930755 144.04140982 -130.27563477 153.25390625 C-130.72096558 154.19711479 -130.72096558 154.19711479 -131.17529297 155.15937805 C-131.96659514 156.83526427 -132.76063407 158.50985756 -133.55493164 160.18432617 C-136.26288657 166.14037406 -138.79768605 172.17376745 -141.375 178.1875 C-75.375 178.1875 -9.375 178.1875 58.625 178.1875 C52.82755126 165.30428057 47.00108461 152.44252181 41.0625 139.625 C36.3292038 129.40570371 31.61010511 119.18118541 26.97265625 108.91796875 C26.23321656 107.28520943 25.49371584 105.65247775 24.75415039 104.01977539 C23.69406805 101.67908494 22.63621267 99.33752139 21.5854187 96.99264526 C20.62493201 94.84934211 19.65698719 92.70955585 18.6875 90.5703125 C18.40499893 89.93373215 18.12249786 89.29715179 17.83143616 88.64128113 C16.43742812 85.28591442 16.43742812 85.28591442 13.625 83.1875 C13.2846875 83.744375 12.944375 84.30125 12.59375 84.875 C2.77251501 100.33822105 -11.52835899 109.30177655 -29.3125 113.5 C-46.58739294 116.36523989 -63.63315293 112.54822684 -78.375 103.1875 C-85.23443708 98.07093623 -90.99847803 92.16093376 -95.38671875 84.76953125 C-95.87591797 83.98642578 -95.87591797 83.98642578 -96.375 83.1875 C-96.705 83.1875 -97.035 83.1875 -97.375 83.1875 Z M-267.375 210.1875 C-273.31489846 217.43708654 -275.68783829 224.47404302 -275.63569641 233.87814331 C-275.63952196 234.62098072 -275.64334751 235.36381813 -275.64728898 236.12916577 C-275.65755251 238.60164614 -275.65363957 241.07389139 -275.6496582 243.54638672 C-275.65400837 245.32589939 -275.65919254 247.10541018 -275.66514587 248.88491821 C-275.67851461 253.70728943 -275.67911688 258.52958216 -275.67658257 263.35196829 C-275.67551137 267.38268001 -275.68040008 271.41337595 -275.685188 275.44408429 C-275.69627594 284.95606173 -275.69672466 294.46799969 -275.69067383 303.97998047 C-275.68463453 313.78148591 -275.6969456 323.58284778 -275.7182439 333.38432872 C-275.73587713 341.81002779 -275.74185852 350.23568122 -275.73860615 358.66139805 C-275.73679583 363.68904788 -275.73940446 368.7165953 -275.75332069 373.74422836 C-275.76592234 378.47373505 -275.76393283 383.20301845 -275.75090981 387.93252182 C-275.74854953 389.66385983 -275.75125898 391.39521366 -275.75953293 393.12653351 C-275.81199404 404.96145984 -275.34511077 414.57974977 -267.46484375 424.109375 C-260.16032151 431.3729373 -251.26749828 434.43327635 -241.0788002 434.44476891 C-240.37503215 434.44827498 -239.67126409 434.45178105 -238.94616973 434.45539337 C-236.59409937 434.46467789 -234.24227822 434.45979175 -231.89019775 434.45492554 C-230.18432659 434.45866329 -228.47845714 434.4632653 -226.7725904 434.46865618 C-222.08937137 434.4808862 -217.40622378 434.48062571 -212.72299242 434.47826743 C-207.67035859 434.47785927 -202.61774767 434.4888984 -197.56512451 434.49838257 C-187.66762469 434.51499359 -177.7701487 434.52049216 -167.87263611 434.52160732 C-159.82703136 434.52255776 -151.78143448 434.52666781 -143.73583221 434.53300858 C-120.9231708 434.55062131 -98.1105282 434.5598474 -75.29785994 434.55834763 C-74.06809155 434.55826772 -72.83832316 434.5581878 -71.57128906 434.55810547 C-70.34001847 434.55802371 -69.10874788 434.55794195 -67.84016606 434.55785771 C-47.8858427 434.55704481 -27.93159482 434.5761833 -7.97729328 434.6043822 C12.51350169 434.63311068 33.00425984 434.64692251 53.49507546 434.64519465 C64.99835412 434.64453073 76.50155364 434.65002378 88.00481415 434.67155075 C97.79903483 434.68976204 107.59314051 434.69411027 117.3873708 434.6805319 C122.38317006 434.67400202 127.3787487 434.6738859 132.37452698 434.6912384 C136.951671 434.7069731 141.5284195 434.70410137 146.1055539 434.68667014 C147.75761734 434.68360113 149.40971034 434.68722889 151.06173894 434.69839029 C162.84672744 434.77271149 173.35034662 433.66943068 182.83984375 425.953125 C189.43454889 419.43057199 192.81234712 411.90255661 192.89714891 402.56238282 C192.89336958 401.8807592 192.88959026 401.19913557 192.88569641 400.49685669 C192.88952196 399.75401928 192.89334751 399.01118187 192.89728898 398.24583423 C192.90755251 395.77335386 192.90363957 393.30110861 192.8996582 390.82861328 C192.90400837 389.04910061 192.90919254 387.26958982 192.91514587 385.49008179 C192.92851461 380.66771057 192.92911688 375.84541784 192.92658257 371.02303171 C192.92551137 366.99231999 192.93040008 362.96162405 192.935188 358.93091571 C192.94627594 349.41893827 192.94672466 339.90700031 192.94067383 330.39501953 C192.93463453 320.59351409 192.9469456 310.79215222 192.9682439 300.99067128 C192.98587713 292.56497221 192.99185852 284.13931878 192.98860615 275.71360195 C192.98679583 270.68595212 192.98940446 265.6584047 193.00332069 260.63077164 C193.01592234 255.90126495 193.01393283 251.17198155 193.00090981 246.44247818 C192.99854953 244.71114017 193.00125898 242.97978634 193.00953293 241.24846649 C193.06199404 229.41354016 192.59511077 219.79525023 184.71484375 210.265625 C177.41032151 203.0020627 168.51749828 199.94172365 158.3288002 199.93023109 C157.62503215 199.92672502 156.92126409 199.92321895 156.19616973 199.91960663 C153.84409937 199.91032211 151.49227822 199.91520825 149.14019775 199.92007446 C147.43432659 199.91633671 145.72845714 199.9117347 144.0225904 199.90634382 C139.33937137 199.8941138 134.65622378 199.89437429 129.97299242 199.89673257 C124.92035859 199.89714073 119.86774767 199.8861016 114.81512451 199.87661743 C104.91762469 199.86000641 95.0201487 199.85450784 85.12263611 199.85339268 C77.07703136 199.85244224 69.03143448 199.84833219 60.98583221 199.84199142 C38.1731708 199.82437869 15.3605282 199.8151526 -7.45214006 199.81665237 C-8.68190845 199.81673228 -9.91167684 199.8168122 -11.17871094 199.81689453 C-13.02561682 199.81701717 -13.02561682 199.81701717 -14.90983394 199.81714229 C-34.8641573 199.81795519 -54.81840518 199.7988167 -74.77270672 199.7706178 C-95.26350169 199.74188932 -115.75425984 199.72807749 -136.24507546 199.72980535 C-147.74835412 199.73046927 -159.25155364 199.72497622 -170.75481415 199.70344925 C-180.54903483 199.68523796 -190.34314051 199.68088973 -200.1373708 199.6944681 C-205.13317006 199.70099798 -210.1287487 199.7011141 -215.12452698 199.6837616 C-219.701671 199.6680269 -224.2784195 199.67089863 -228.8555539 199.68832986 C-230.50761734 199.69139887 -232.15971034 199.68777111 -233.81173894 199.67660971 C-246.37783718 199.59736249 -258.00112865 200.91618742 -267.375 210.1875 Z " fill="#FFFFFF" transform="translate(297.375,34.8125)"/>
<path d="M0 0 C1.08425262 -0.0066568 2.16850525 -0.0133136 3.28561401 -0.02017212 C5.5665315 -0.0302535 7.84747822 -0.03499055 10.12841797 -0.03466797 C13.61344667 -0.03905779 17.09722474 -0.0754723 20.58203125 -0.11328125 C22.80468319 -0.11914703 25.02734111 -0.12311802 27.25 -0.125 C28.28762482 -0.13937103 29.32524963 -0.15374207 30.39431763 -0.16854858 C36.40899647 -0.1305805 39.93936847 0.27868837 44.4921875 4.3359375 C46.9600191 8.03768489 47.17291482 11.04087225 46.4921875 15.3359375 C43.4921875 20.8359375 43.4921875 20.8359375 40.4921875 22.3359375 C38.98754709 22.44399679 37.47838666 22.49217556 35.9699707 22.50952148 C35.03171951 22.52301132 34.09346832 22.53650116 33.12678528 22.55039978 C31.6002961 22.56605736 31.6002961 22.56605736 30.04296875 22.58203125 C27.89387634 22.61498279 25.74478789 22.64819421 23.59570312 22.68164062 C20.20323549 22.72896598 16.81078242 22.77336676 13.41821289 22.81274414 C10.14712243 22.85260347 6.8763707 22.9041294 3.60546875 22.95703125 C2.59793045 22.9654454 1.59039215 22.97385956 0.55232239 22.98252869 C-7.19813108 23.08217529 -7.19813108 23.08217529 -14.5078125 25.3359375 C-17.54361546 30.50867439 -16.95945341 37.34562176 -17.1328125 43.2109375 C-17.17148438 44.28085937 -17.21015625 45.35078125 -17.25 46.453125 C-17.34383702 49.08056158 -17.42952807 51.70799921 -17.5078125 54.3359375 C-16.43452446 54.31928291 -16.43452446 54.31928291 -15.33955383 54.30229187 C-8.58652232 54.20198225 -1.83369958 54.12591867 4.91990948 54.07687664 C8.39183599 54.05081523 11.86314542 54.01548363 15.3347168 53.95874023 C19.32867249 53.89386916 23.32198308 53.86972888 27.31640625 53.84765625 C28.55927902 53.82184982 29.80215179 53.7960434 31.08268738 53.76945496 C40.68516884 53.76633095 40.68516884 53.76633095 43.75317383 56.74145508 C46.55831833 60.92652746 47.19400386 64.32708376 46.4921875 69.3359375 C44.32301353 72.89958045 42.33515413 74.80264765 38.4921875 76.3359375 C35.88519287 76.57644653 35.88519287 76.57644653 32.89746094 76.56298828 C31.77660095 76.56283722 30.65574097 76.56268616 29.50091553 76.56253052 C27.69448578 76.54704666 27.69448578 76.54704666 25.8515625 76.53125 C23.99558441 76.52700516 23.99558441 76.52700516 22.10211182 76.52267456 C18.82067209 76.5133795 15.53942996 76.49542455 12.25805664 76.4732666 C8.90643128 76.45276798 5.55479743 76.44383474 2.203125 76.43359375 C-4.36726473 76.4115378 -10.93752246 76.37806332 -17.5078125 76.3359375 C-17.42669542 80.0659786 -17.31387175 83.7944135 -17.1953125 87.5234375 C-17.17275391 88.57853516 -17.15019531 89.63363281 -17.12695312 90.72070312 C-17.09150391 91.74228516 -17.05605469 92.76386719 -17.01953125 93.81640625 C-16.99334717 94.75379639 -16.96716309 95.69118652 -16.94018555 96.65698242 C-16.42200304 99.86760729 -15.46093864 101.74388904 -13.5078125 104.3359375 C-10.56876715 106.36015244 -8.1716855 106.58277473 -4.65087891 106.57543945 C-3.68953033 106.57917068 -2.72818176 106.58290192 -1.73770142 106.58674622 C-0.18917984 106.58054512 -0.18917984 106.58054512 1.390625 106.57421875 C3.58333953 106.5896371 5.77604799 106.60594063 7.96875 106.62304688 C11.42070935 106.63950583 14.87222335 106.64842719 18.32421875 106.64135742 C21.6593655 106.63873695 24.99315901 106.66686163 28.328125 106.69921875 C29.35642426 106.68901199 30.38472351 106.67880524 31.44418335 106.66828918 C39.4475971 106.77736417 39.4475971 106.77736417 43.12744141 109.75073242 C46.35946373 113.28406759 46.88675153 115.40077383 46.8515625 120.23046875 C46.21636936 123.95187203 44.15239734 125.73906599 41.4921875 128.3359375 C39.01920641 129.57242804 37.34092937 129.48281104 34.57446289 129.51293945 C33.54901871 129.52577469 32.52357452 129.53860992 31.46705627 129.55183411 C30.35257614 129.55922104 29.23809601 129.56660797 28.08984375 129.57421875 C26.94237167 129.5822905 25.7948996 129.59036224 24.61265564 129.59867859 C22.17562374 129.61253434 19.73857231 129.62324979 17.30151367 129.63110352 C13.60101492 129.64822317 9.90143124 129.69208616 6.20117188 129.73632812 C3.83073572 129.74646321 1.46029198 129.75497675 -0.91015625 129.76171875 C-2.0064183 129.77922684 -3.10268036 129.79673492 -4.23216248 129.81477356 C-14.94694132 129.78502749 -23.74383494 127.0972727 -31.5625 119.62890625 C-37.23061781 112.94781157 -39.65181788 105.61897919 -39.68481445 96.99389648 C-39.69138565 96.24874283 -39.69795685 95.50358917 -39.70472717 94.7358551 C-39.72444662 92.26791274 -39.73612311 89.80003136 -39.74609375 87.33203125 C-39.75016928 86.48672411 -39.7542448 85.64141697 -39.75844383 84.77049446 C-39.77930427 80.29157888 -39.79360301 75.81269388 -39.80297852 71.33374023 C-39.81400993 66.72614927 -39.84837174 62.11904565 -39.88815022 57.51162624 C-39.91441193 53.95377256 -39.92267905 50.39603296 -39.92625999 46.8380909 C-39.93110562 45.14096875 -39.94266133 43.443851 -39.96129799 41.74682426 C-40.08467926 29.76164851 -39.09400871 19.83424793 -31.3359375 10.15625 C-22.49953253 1.35760744 -11.87077749 0.02556189 0 0 Z " fill="#FFFFFF" transform="translate(188.5078125,297.6640625)"/>
<path d="M0 0 C1.46983337 -0.00855011 1.46983337 -0.00855011 2.96936035 -0.01727295 C5.03701708 -0.02669946 7.10468867 -0.03324757 9.17236328 -0.03710938 C12.33262189 -0.04684073 15.49223689 -0.07789689 18.65234375 -0.109375 C20.66405865 -0.11590316 22.67577818 -0.12115437 24.6875 -0.125 C25.63032837 -0.1373468 26.57315674 -0.1496936 27.54455566 -0.16241455 C32.49383646 -0.14562013 35.80871157 0.00678852 39.84375 3.203125 C40.43285156 3.65945313 41.02195312 4.11578125 41.62890625 4.5859375 C43.75766568 7.41972015 43.30180687 10.33699565 43.20703125 13.75390625 C42.70218014 17.15757983 41.35693492 18.91169169 38.84375 21.203125 C35.43379192 22.90810404 31.53141108 22.38292018 27.77734375 22.4140625 C25.91079886 22.44215357 24.04426253 22.47081815 22.17773438 22.5 C19.23755336 22.54109063 16.29752825 22.57797821 13.35717773 22.60449219 C10.51772967 22.63231345 7.67900693 22.67820772 4.83984375 22.7265625 C3.54088417 22.7314418 3.54088417 22.7314418 2.21568298 22.73641968 C-4.72662 22.87436428 -11.63843015 23.62235965 -16.65625 28.765625 C-19.62527285 33.59028713 -19.77691298 37.59129724 -19.15625 43.203125 C-16.9628119 47.67123966 -14.66919863 50.11175856 -10.15625 52.203125 C-6.27535051 53.23319552 -2.50589398 53.33619247 1.48120117 53.44213867 C13.40432224 53.79436749 24.00658755 55.47806186 32.84375 64.203125 C41.80428126 74.78628768 43.9175609 84.69650991 43.05517578 98.24121094 C41.98535388 108.16856522 35.31420649 116.73680271 27.7734375 122.88671875 C21.77488365 126.97884962 15.2135888 129.29590167 7.97094727 129.38012695 C6.52408287 129.39937981 6.52408287 129.39937981 5.04798889 129.41902161 C4.01250412 129.42640854 2.97701935 129.43379547 1.91015625 129.44140625 C0.84006821 129.449478 -0.23001984 129.45754974 -1.33253479 129.46586609 C-3.5944762 129.47968588 -5.85643828 129.49041743 -8.1184082 129.49829102 C-11.5773851 129.51554338 -15.03541575 129.55945387 -18.49414062 129.60351562 C-20.69270131 129.61363958 -22.89127011 129.62215661 -25.08984375 129.62890625 C-26.12330429 129.64641434 -27.15676483 129.66392242 -28.22154236 129.68196106 C-35.41183517 129.66022388 -35.41183517 129.66022388 -39.26586914 127.29370117 C-42.00592957 124.26346258 -43.00065495 122.39602042 -43.53125 118.328125 C-43.05486498 114.35824986 -41.62584574 112.30775964 -39.15625 109.203125 C-36.03652073 107.12330549 -35.32584057 106.95145273 -31.7800293 106.93188477 C-30.45801765 106.91660484 -30.45801765 106.91660484 -29.10929871 106.90101624 C-28.15928482 106.89887619 -27.20927094 106.89673615 -26.23046875 106.89453125 C-24.21679403 106.86936691 -22.20312223 106.84396895 -20.18945312 106.81835938 C-17.01636536 106.78964032 -13.84332822 106.7656225 -10.67016602 106.74682617 C-7.60666405 106.72512964 -4.54376222 106.6856814 -1.48046875 106.64453125 C-0.53652756 106.64441544 0.40741364 106.64429962 1.37995911 106.6441803 C6.6123329 106.56583089 10.32904861 106.14515616 14.84375 103.203125 C19.00096879 98.70883442 20.12332258 95.34999654 20.078125 89.203125 C19.74678571 86.37569643 18.46353715 84.49782346 16.84375 82.203125 C16.84375 81.543125 16.84375 80.883125 16.84375 80.203125 C16.06 79.89375 15.27625 79.584375 14.46875 79.265625 C11.84375 78.203125 11.84375 78.203125 9.84375 77.203125 C8.47539223 77.09858642 7.10265878 77.0479793 5.73046875 77.02734375 C-10.62919707 76.61596963 -23.16285369 74.74157346 -34.90625 62.453125 C-41.16291998 55.01083034 -43.56235375 45.67140383 -43.43359375 36.0859375 C-42.24091284 23.68877536 -36.73069815 14.61072248 -27.37109375 6.7421875 C-18.96687753 0.90222068 -9.91429783 0.04468953 0 0 Z " fill="#FFFFFF" transform="translate(85.15625,297.796875)"/>
<path d="M0 0 C3.98695278 2.14682073 6.32967417 3.79160127 8 8 C8.24609566 10.038311 8.24609566 10.038311 8.24050903 12.23944092 C8.24325836 13.07794083 8.24600769 13.91644073 8.24884033 14.78034973 C8.24164978 15.69169174 8.23445923 16.60303375 8.22705078 17.54199219 C8.22734283 18.50817978 8.22763489 19.47436737 8.22793579 20.46983337 C8.22654285 23.66227205 8.21098318 26.85447711 8.1953125 30.046875 C8.19158225 32.26076124 8.18873533 34.47464912 8.18673706 36.6885376 C8.1791016 42.51483724 8.15945376 48.34103713 8.1373291 54.16729736 C8.11686886 60.11281993 8.10773496 66.05835862 8.09765625 72.00390625 C8.07620787 83.66931465 8.04207288 95.33464903 8 107 C8.70299728 106.99111755 9.40599457 106.98223511 10.1302948 106.9730835 C16.76563998 106.89283005 23.4008491 106.83198138 30.03657055 106.79275131 C33.44784999 106.77190424 36.85872734 106.74364103 40.26977539 106.69824219 C44.19412369 106.64634041 48.11831096 106.62703078 52.04296875 106.609375 C53.26396774 106.58872986 54.48496674 106.56808472 55.7429657 106.54681396 C56.8837709 106.54651184 58.02457611 106.54620972 59.19995117 106.54589844 C60.20144699 106.53701599 61.20294281 106.52813354 62.23478699 106.51898193 C65.75974179 107.13215963 67.42253168 108.57433508 70 111 C72.28853994 114.26934278 72.47162218 117.0698152 72 121 C69.96006092 124.6578218 68.49580738 126.66946174 65 129 C61.94621277 129.26742554 61.94621277 129.26742554 58.14526367 129.29052734 C57.45220627 129.29724457 56.75914886 129.30396179 56.04508972 129.31088257 C53.7526432 129.32988809 51.46048917 129.33378829 49.16796875 129.3359375 C47.57237121 129.34236473 45.97677486 129.34909304 44.38117981 129.35610962 C41.03460967 129.36808951 37.6881428 129.37178982 34.34155273 129.37060547 C30.06084572 129.37040248 25.78080411 129.39767991 21.50025463 129.43214989 C18.20332319 129.45443127 14.9065514 129.4584426 11.60955238 129.45738602 C10.03194198 129.45974107 8.4543271 129.46855926 6.876791 129.48405075 C4.66503289 129.50373267 2.45470293 129.49786517 0.24291992 129.48583984 C-1.64213005 129.4901149 -1.64213005 129.4901149 -3.56526184 129.49447632 C-7.63885204 128.90802874 -9.81380229 127.55723676 -13 125 C-14.20712614 122.58574772 -14.13630695 121.04911827 -14.15390015 118.35136414 C-14.16680084 116.88139481 -14.16680084 116.88139481 -14.17996216 115.38172913 C-14.18422211 114.30273849 -14.18848206 113.22374786 -14.19287109 112.11206055 C-14.20104858 110.9786322 -14.20922607 109.84520386 -14.21765137 108.6774292 C-14.24253365 104.91386449 -14.2590277 101.15033753 -14.2734375 97.38671875 C-14.27876118 96.10398386 -14.28408485 94.82124897 -14.28956985 93.49964333 C-14.31080444 88.10979536 -14.32993457 82.71995972 -14.34119225 77.33008099 C-14.35743108 69.60621366 -14.39060695 61.88284942 -14.44759309 54.15917176 C-14.49096358 48.07336507 -14.50693733 41.98775575 -14.51332474 35.90180397 C-14.52005471 33.31298045 -14.53532163 30.72416474 -14.55921555 28.13544273 C-14.59072603 24.51527765 -14.59092438 20.89638845 -14.58349609 17.27612305 C-14.59990143 16.20320511 -14.61630676 15.13028717 -14.63320923 14.02485657 C-14.57211466 6.76532814 -14.57211466 6.76532814 -11.65103149 2.85774231 C-7.72359141 0.10554128 -4.72981822 -0.46370767 0 0 Z " fill="#FFFFFF" transform="translate(398,298)"/>
<path d="M0 0 C3.6578218 2.03993908 5.66946174 3.50419262 8 7 C8.24609566 8.93088055 8.24609566 8.93088055 8.24050903 11.15715027 C8.24325836 12.00268967 8.24600769 12.84822906 8.24884033 13.71939087 C8.24164978 14.64367889 8.23445923 15.56796692 8.22705078 16.52026367 C8.22734283 17.49605881 8.22763489 18.47185394 8.22793579 19.47721863 C8.22654072 22.70755864 8.21097108 25.93766895 8.1953125 29.16796875 C8.191583 31.40570449 8.18873573 33.64344186 8.18673706 35.88117981 C8.17909564 41.77489723 8.15944272 47.6685163 8.1373291 53.56219482 C8.11688166 59.57465281 8.1077377 65.58712666 8.09765625 71.59960938 C8.07619736 83.39978283 8.04205523 95.19988324 8 107 C8.70077667 106.98889694 9.40155334 106.97779388 10.12356567 106.96635437 C16.74383766 106.8659619 23.36389571 106.78993935 29.98475838 106.74093914 C33.38828256 106.71489976 36.79117519 106.67960908 40.19433594 106.62280273 C44.11124989 106.5578336 48.02791258 106.53377247 51.9453125 106.51171875 C53.16115021 106.48591232 54.37698792 106.4601059 55.62966919 106.43351746 C65.06645746 106.43039327 65.06645746 106.43039327 68.75341797 109.40551758 C71.83806069 112.9678408 72.39405621 115.13453477 72.359375 119.89453125 C71.72418186 123.61593453 69.66020984 125.40312849 67 128 C64.08795317 129.45602342 61.51145573 129.1595806 58.25878906 129.19287109 C57.219422 129.20513733 57.219422 129.20513733 56.15905762 129.21765137 C53.86125553 129.24250397 51.56351531 129.25902252 49.265625 129.2734375 C48.48060356 129.27876118 47.69558212 129.28408485 46.88677216 129.28956985 C42.73018876 129.31630319 38.5736354 129.33567587 34.41699219 129.35009766 C30.12832977 129.36672981 25.84043817 129.41149405 21.5520668 129.4624691 C18.25086612 129.49616763 14.94984764 129.50767795 11.64849091 129.51332474 C10.06805289 129.52003204 8.48762665 129.53524076 6.90735626 129.55921555 C4.69053392 129.5909237 2.47577969 129.5908967 0.25878906 129.58349609 C-1.00092712 129.59158295 -2.26064331 129.5996698 -3.55853271 129.60800171 C-8.11965195 128.80219184 -9.7387782 127.23585259 -13 124 C-14.19873867 121.60252267 -14.13354438 120.10484022 -14.14717102 117.42729187 C-14.15432632 116.46414063 -14.16148163 115.50098938 -14.16885376 114.50865173 C-14.17154266 113.44836258 -14.17423157 112.38807343 -14.17700195 111.2956543 C-14.18685875 109.62477249 -14.18685875 109.62477249 -14.19691467 107.9201355 C-14.21667998 104.22149596 -14.22831691 100.52289707 -14.23828125 96.82421875 C-14.24235678 95.56354898 -14.2464323 94.30287922 -14.25063133 93.00400734 C-14.26935092 87.02125017 -14.28391417 81.03851775 -14.2922433 75.0557391 C-14.30201526 68.15063268 -14.32833315 61.24584685 -14.36874419 54.34085339 C-14.40254668 48.35969795 -14.41438859 42.37869811 -14.41844749 36.39743996 C-14.42332772 33.85328814 -14.43498222 31.3091401 -14.45348549 28.76505089 C-14.47775465 25.20728209 -14.4769339 21.65035501 -14.4699707 18.0925293 C-14.48278076 17.03831284 -14.49559082 15.98409637 -14.50878906 14.89793396 C-14.45766666 7.74465376 -14.45766666 7.74465376 -12.08781433 3.88874817 C-8.17957243 0.35314415 -5.32391932 -0.63887032 0 0 Z " fill="#FFFFFF" transform="translate(291,298)"/>
</svg>
