<svg xmlns="http://www.w3.org/2000/svg" xmlns:xlink="http://www.w3.org/1999/xlink" width="96.61267089843744" height="81.08000183105469" viewBox="140 1064.0000457763672 96.61267089843744 81.08000183105469"><g transform="matrix(1,0,0,1,117,1003.5400390625)"><path d="M 301.3684997558594 154.4373168945312 C 298.8419494628906 154.4399261474609 296.5600280761719 152.9276428222656 295.5779418945312 150.5997772216797 C 295.2212829589844 149.7558898925781 295.6162414550781 148.7826538085938 296.4601135253906 148.4259796142578 C 297.3039855957031 148.0693054199219 298.2772216796875 148.4642639160156 298.6338806152344 149.3081512451172 C 299.2124328613281 150.6783905029297 300.7156372070312 151.4090576171875 302.1505432128906 151.0175018310547 C 303.58544921875 150.6259460449219 304.5091552734375 149.2330322265625 304.3115234375 147.7588500976562 C 304.1138610839844 146.28466796875 302.8558654785156 145.1842498779297 301.3684997558594 145.1844940185547 C 298.2764282226562 145.1862030029297 295.642578125 142.938232421875 295.1585083007812 139.88427734375 C 294.6744384765625 136.8303375244141 296.4840087890625 133.8780517578125 299.425048828125 132.9234924316406 C 302.3660888671875 131.9689331054688 305.5645141601562 133.2957763671875 306.9662170410156 136.0518951416016 C 307.3818664550781 136.8682861328125 307.0570068359375 137.8670501708984 306.2406005859375 138.2826843261719 C 305.4241943359375 138.6983337402344 304.4254455566406 138.3734588623047 304.0097961425781 137.5570678710938 C 303.3487548828125 136.2555084228516 301.839111328125 135.6282501220703 300.4503479003906 136.0780944824219 C 299.0615844726562 136.5279541015625 298.2064514160156 137.9212341308594 298.4341125488281 139.3631896972656 C 298.6617431640625 140.8051147460938 299.904541015625 141.8671875 301.3643493652344 141.8673095703125 C 304.8360290527344 141.8662719726562 307.650390625 144.6806335449219 307.650390625 148.1523132324219 C 307.650390625 151.6239929199219 304.8360290527344 154.4383544921875 301.3643188476562 154.4383544921875 Z" transform="matrix(1,0,0,1,-215.67184448242188,-57.19609451293945)" fill="#1fbe54" fill-rule="evenodd"/><path d="M 319.068603515625 122.7628784179688 C 318.152587890625 122.7628784179688 317.4100036621094 122.0203094482422 317.4100036621094 121.1042938232422 L 317.4100036621094 117.6585845947266 C 317.4100036621094 116.7425689697266 318.152587890625 116 319.068603515625 116 C 319.984619140625 116 320.7271728515625 116.7425689697266 320.7271728515625 117.6585845947266 L 320.7271728515625 121.1042938232422 C 320.7271728515625 122.0203094482422 319.984619140625 122.7628784179688 319.068603515625 122.7628784179688 Z" transform="matrix(1,0,0,1,-233.3719482421875,-44.02526092529297)" fill="#1fbe54" fill-rule="evenodd"/><path d="M 319.068603515625 228.6329040527344 C 318.152587890625 228.6329040527344 317.4100036621094 227.8903198242188 317.4100036621094 226.9743041992188 L 317.4100036621094 223.5285949707031 C 317.4100036621094 222.6125793457031 318.152587890625 221.8700103759766 319.068603515625 221.8700103759766 C 319.984619140625 221.8700103759766 320.7271728515625 222.6125793457031 320.7271728515625 223.5285949707031 L 320.7271728515625 226.9743041992188 C 320.7271728515625 227.8903198242188 319.984619140625 228.6329040527344 319.068603515625 228.6329040527344 Z" transform="matrix(1,0,0,1,-233.3719482421875,-127.9459457397461)" fill="#1fbe54" fill-rule="evenodd"/><path d="M 246.6654968261719 127.0927276611328 C 235.2969360351562 127.0801696777344 226.0837097167969 117.8678665161133 226.0700073242188 106.4993057250977 C 226.0700073242188 105.9581909179688 226.0907440185547 105.4170837402344 226.1322021484375 104.8884048461914 C 226.2030029296875 103.9751281738281 227.0009002685547 103.2923431396484 227.9141540527344 103.3633422851562 C 228.8274230957031 103.4343490600586 229.5101928710938 104.2322387695312 229.439208984375 105.1455001831055 C 229.4037628173828 105.5891571044922 229.3871765136719 106.0452728271484 229.3871765136719 106.4993057250977 C 229.3961486816406 112.9331512451172 232.9791717529297 118.8291625976562 238.6857757568359 121.8005218505859 C 244.3923797607422 124.7718963623047 251.2773284912109 124.3264465332031 256.553466796875 120.6445083618164 C 261.8296203613281 116.9625701904297 264.6230163574219 110.6540069580078 263.8028564453125 104.2726593017578 C 263.8028564453125 104.2726593017578 263.8028564453125 104.2581405639648 263.8028564453125 104.2498474121094 C 263.6138305664062 102.8079223632812 263.2425231933594 101.3958129882812 262.6978149414062 100.0474090576172 C 262.6978149414062 100.0287475585938 262.6812438964844 100.0121612548828 262.6750183105469 99.99557495117188 C 260.3457336425781 94.25288391113281 255.1174621582031 90.198974609375 248.9756164550781 89.373291015625 C 242.8337860107422 88.547607421875 236.7205047607422 91.07681274414062 232.9572906494141 96.00045013427734 C 232.3998107910156 96.727294921875 231.3586120605469 96.86422729492188 230.6319732666016 96.30650329589844 C 229.9053192138672 95.748779296875 229.7683868408203 94.70758056640625 230.3261108398438 93.98093414306641 C 234.8065490722656 88.12300872802734 242.0786743164062 85.10985565185547 249.3892211914062 86.08226013183594 C 256.6997680664062 87.05465698242188 262.9313659667969 91.86399841308594 265.7247314453125 98.68943786621094 C 265.7335815429688 98.70684814453125 265.7412109375 98.724853515625 265.74755859375 98.74333953857422 C 266.4149169921875 100.3788452148438 266.8678894042969 102.0938186645508 267.0951538085938 103.8455657958984 L 267.0951538085938 103.8766632080078 C 267.205078125 104.7465591430664 267.260498046875 105.6224822998047 267.260986328125 106.4992980957031 C 267.2472839355469 117.8678588867188 258.0340576171875 127.0801620483398 246.6654968261719 127.0927276611328 Z" transform="matrix(1,0,0,1,-160.96885681152344,-20.167434692382812)" fill="#1fbe54" fill-rule="evenodd"/><path d="M 86.92396545410156 74.46054840087891 C 86.00794982910156 74.48402404785156 85.24635314941406 73.76047515869141 85.22287750244141 72.84446716308594 C 85.19940185546875 71.92845153808594 85.92295074462891 71.16684722900391 86.83895874023438 71.14337921142578 C 89.63160705566406 70.99825286865234 93.14781188964844 70.64165496826172 93.95637512207031 70.3140869140625 C 100.3108367919922 67.80339813232422 116.1109390258789 62.56641387939453 125.3741455078125 68.30512237548828 C 125.4902496337891 68.3714599609375 126.1889190673828 68.74671936035156 130.3353881835938 70.88629150390625 C 131.1494903564453 71.30709075927734 131.4683380126953 72.30817413330078 131.0475463867188 73.12227630615234 C 130.6267395019531 73.93637847900391 129.6256713867188 74.25522613525391 128.8115539550781 73.83442687988281 C 123.9456787109375 71.31960296630859 123.7383575439453 71.19728088378906 123.6471405029297 71.13715362548828 C 115.445426940918 66.03285217285156 99.78215026855469 71.58082580566406 95.17957305908203 73.4073486328125 C 93.44842529296875 74.09358215332031 88.07045745849609 74.40457153320312 87.01103210449219 74.45847320556641 L 86.92396545410156 74.46054840087891 Z" transform="matrix(1,0,0,1,-49.322181701660156,-4.167201042175293)" fill="#1fbe54" fill-rule="evenodd"/><path d="M 90.47417449951172 139.2491912841797 L 87.08858489990234 139.2491912841797 C 86.17257690429688 139.2491912841797 85.43000030517578 138.5066223144531 85.43000030517578 137.5906066894531 C 85.43000030517578 136.6745910644531 86.17257690429688 135.9320220947266 87.08858489990234 135.9320220947266 L 90.47417449951172 135.9320220947266 C 93.49882507324219 135.9190216064453 96.48057556152344 135.2155914306641 99.19212341308594 133.8753662109375 C 102.0946502685547 132.4489898681641 110.5285568237305 131.7088470458984 111.6709136962891 131.690185546875 L 121.7115783691406 131.5139617919922 C 122.5385894775391 131.5014343261719 123.3265380859375 131.1599731445312 123.9011764526367 130.5650939941406 C 124.475830078125 129.9702301025391 124.7898254394531 129.1709289550781 124.7737426757812 128.343994140625 L 124.7737426757812 127.9293441772461 C 124.7612152099609 127.1023406982422 124.4197616577148 126.3143844604492 123.8248901367188 125.7397384643555 C 123.2300033569336 125.1650924682617 122.4307098388672 124.8510894775391 121.603759765625 124.8671798706055 L 108.6626434326172 125.0931549072266 L 108.6336212158203 125.0931549072266 C 107.7176055908203 125.1011734008789 106.9685363769531 124.3650970458984 106.9605255126953 123.4490814208984 C 106.952507019043 122.533073425293 107.6885833740234 121.7839965820312 108.6045989990234 121.7759857177734 L 121.5457153320312 121.5500030517578 L 121.6597442626953 121.5500030517578 C 125.1652221679688 121.5572967529297 128.0213317871094 124.3664169311523 128.0867462158203 127.8712921142578 L 128.0867614746094 128.2859344482422 C 128.1456909179688 131.8369750976562 125.3184661865234 134.7653045654297 121.7675476074219 134.8311462402344 L 111.7268829345703 135.0052795410156 C 110.1387786865234 135.0343170166016 102.654411315918 135.8677520751953 100.6537399291992 136.8525390625 C 97.4869384765625 138.4150848388672 94.00545501708984 139.2347564697266 90.47416687011719 139.2491912841797 Z" transform="matrix(1,0,0,1,-49.4868049621582,-48.424617767333984)" fill="#1fbe54" fill-rule="evenodd"/><path d="M 37.60177993774414 97.34075164794922 L 24.6585865020752 97.34075164794922 C 23.74257469177246 97.34075164794922 23 96.59817504882812 23 95.68216705322266 L 23 62.11859512329102 C 23 61.20258331298828 23.74257469177246 60.46000671386719 24.6585865020752 60.46000671386719 L 37.60177993774414 60.46000671386719 C 38.51779174804688 60.46000671386719 39.26036834716797 61.20258331298828 39.26036834716797 62.11859512329102 L 39.26036834716797 95.68216705322266 C 39.26036834716797 96.59817504882812 38.51779174804688 97.34075164794922 37.60177993774414 97.34075164794922 Z M 26.31717300415039 94.02357482910156 L 35.94319152832031 94.02357482910156 L 35.94319152832031 63.77718353271484 L 26.31717300415039 63.77718353271484 L 26.31717300415039 94.02357482910156 Z" fill="#1fbe54" fill-rule="evenodd"/><path d="M 55.87858963012695 170.9686279296875 C 54.96257781982422 170.9686279296875 54.22000122070312 170.2260437011719 54.22000122070312 169.3100280761719 L 54.22000122070312 161.7385864257812 C 54.22000122070312 160.8225708007812 54.96257781982422 160.0800018310547 55.87858963012695 160.0800018310547 C 56.79460144042969 160.0800018310547 57.53717422485352 160.8225708007812 57.53717422485352 161.7385864257812 L 57.53717422485352 169.3100280761719 C 57.53717422485352 170.2260437011719 56.79460144042969 170.9686279296875 55.87858963012695 170.9686279296875 Z" transform="matrix(1,0,0,1,-24.74736785888672,-78.96644592285156)" fill="#1fbe54" fill-rule="evenodd"/><path d="M 136.1191101074219 340.0876159667969 C 132.2234954833984 340.0876159667969 128.4688720703125 339.3868713378906 125.4212188720703 337.4940185546875 C 124.5815582275391 337.0109252929688 110.3032073974609 329.6799926757812 100.8845062255859 324.8576354980469 C 97.62017822265625 323.1934814453125 96.32417297363281 319.1977844238281 97.98929595947266 315.9339599609375 C 99.6544189453125 312.6701049804688 103.6501312255859 311.3741149902344 106.9139633178711 313.0392456054688 L 125.750862121582 322.63720703125 C 126.5672607421875 323.0528564453125 126.8921356201172 324.0516052246094 126.4765014648438 324.8680114746094 C 126.0608596801758 325.6843872070312 125.0620956420898 326.00927734375 124.2456970214844 325.5936279296875 L 105.4083023071289 315.9800720214844 C 103.7726516723633 315.1470642089844 101.7714080810547 315.7977294921875 100.9384078979492 317.4334106445312 C 100.1054077148438 319.0690612792969 100.7560958862305 321.0703125 102.3917465209961 321.9032897949219 C 106.4013824462891 323.9557800292969 126.4246673583984 334.2120666503906 127.1606597900391 334.6702575683594 C 135.3623657226562 339.7724914550781 151.0194396972656 334.2203674316406 155.6240844726562 332.3897094726562 C 157.3531494140625 331.7034606933594 162.7311248779297 331.3945617675781 163.7905426025391 331.3385620117188 C 164.70654296875 331.2910461425781 165.4876556396484 331.9951171875 165.5351715087891 332.9111328125 C 165.5826873779297 333.8271484375 164.8786315917969 334.6082153320312 163.9626159667969 334.65576171875 C 161.1699676513672 334.8008728027344 157.6537780761719 335.157470703125 156.84521484375 335.4850463867188 C 152.5743408203125 337.1726684570312 144.063720703125 340.0876159667969 136.1190948486328 340.0876159667969 Z" transform="matrix(1,0,0,1,-58.86674499511719,-199.6381378173828)" fill="#1fbe54" fill-rule="evenodd"/><path d="M 227.2835693359375 322.7429809570312 C 223.7780914306641 322.7356872558594 220.9219818115234 319.9265747070312 220.8565521240234 316.4216918945312 L 220.8565521240234 316.0070190429688 C 220.7976226806641 312.4559936523438 223.6248474121094 309.5276489257812 227.1757659912109 309.4618530273438 L 237.2164306640625 309.2876892089844 C 238.8045349121094 309.2586669921875 246.2889099121094 308.4252319335938 248.2895660400391 307.4404296875 C 251.45751953125 305.8797302246094 254.9397277832031 305.0621643066406 258.4712219238281 305.0499877929688 L 261.8568115234375 305.0499877929688 C 262.7728271484375 305.0499877929688 263.515380859375 305.7925720214844 263.515380859375 306.7085876464844 C 263.515380859375 307.6246032714844 262.7728271484375 308.3671569824219 261.8568115234375 308.3671569824219 L 258.4608459472656 308.3671569824219 C 255.4357147216797 308.382080078125 252.4539337158203 309.087646484375 249.7429046630859 310.4300231933594 C 246.8403778076172 311.8564147949219 238.4064636230469 312.5965576171875 237.2641143798828 312.615234375 L 227.2234497070312 312.7914428710938 C 226.3964385986328 312.8039855957031 225.6084899902344 313.1454467773438 225.0338439941406 313.7402954101562 C 224.4591979980469 314.335205078125 224.1452026367188 315.1344909667969 224.1612854003906 315.96142578125 L 224.1612854003906 316.3760681152344 C 224.1953125 318.0951843261719 225.6119995117188 319.4636840820312 227.3312377929688 319.438232421875 L 240.2723693847656 319.2122497558594 C 241.1883850097656 319.1962280273438 241.9439544677734 319.9258117675781 241.9599914550781 320.841796875 C 241.9760131835938 321.7578125 241.2464294433594 322.5133972167969 240.3304138183594 322.5294189453125 L 227.3892974853516 322.7554016113281 L 227.2835693359375 322.7429809570312 Z" transform="matrix(1,0,0,1,-156.8355712890625,-193.8807830810547)" fill="#1fbe54" fill-rule="evenodd"/><path d="M 425.1717834472656 310.53076171875 L 412.2286071777344 310.53076171875 C 411.3125915527344 310.53076171875 410.5700073242188 309.7882080078125 410.5700073242188 308.8721923828125 L 410.5700073242188 275.3086242675781 C 410.5700073242188 274.3926086425781 411.3125915527344 273.6500244140625 412.2286071777344 273.6500244140625 L 425.1717834472656 273.6500244140625 C 426.0877990722656 273.6500244140625 426.8303833007812 274.3926086425781 426.8303833007812 275.3086242675781 L 426.8303833007812 308.8721923828125 C 426.8303833007812 309.7882080078125 426.0877990722656 310.53076171875 425.1717834472656 310.53076171875 Z M 413.8871765136719 307.2135925292969 L 423.5132141113281 307.2135925292969 L 423.5132141113281 276.9671936035156 L 413.8871765136719 276.9671936035156 L 413.8871765136719 307.2135925292969 Z" transform="matrix(1,0,0,1,-307.21771240234375,-168.99075317382812)" fill="#1fbe54" fill-rule="evenodd"/><path d="M 443.4385986328125 310.2886352539062 C 442.5225830078125 310.2886352539062 441.780029296875 309.5460815429688 441.780029296875 308.6300659179688 L 441.780029296875 301.0586242675781 C 441.780029296875 300.1426086425781 442.5225830078125 299.4000244140625 443.4385986328125 299.4000244140625 C 444.3546142578125 299.4000244140625 445.09716796875 300.1426086425781 445.09716796875 301.0586242675781 L 445.09716796875 308.6300659179688 C 445.09716796875 309.5460815429688 444.3546142578125 310.2886352539062 443.4385986328125 310.2886352539062 Z" transform="matrix(1,0,0,1,-331.9571838378906,-189.4021759033203)" fill="#1fbe54" fill-rule="evenodd"/></g></svg>