<svg xmlns="http://www.w3.org/2000/svg" xmlns:xlink="http://www.w3.org/1999/xlink" width="43" height="43" viewBox="2165 559.965087890625 43 43"><g><ellipse cx="21.5" cy="21.5" rx="21.5" ry="21.5" transform="matrix(1,0,0,1,2165,559.965087890625)" fill="#032251" fill-rule="evenodd"/><g transform="matrix(1,0,0,1,2175,569.965087890625)"><g><path d="M 0 0 L 24 0 L 24 24 L 0 24 L 0 0 Z" transform="matrix(-1,0,0,-1,24,24)" fill="#ffffff" fill-rule="evenodd" opacity="0"/><path d="M 6.090000152587891 19 L 18.09000015258789 19 L 16.79000091552734 20.29000091552734 C 16.39787864685059 20.6821231842041 16.39787673950195 21.31787872314453 16.78999900817871 21.71000099182129 C 17.1821231842041 22.10212516784668 17.81787872314453 22.10212326049805 18.21000099182129 21.71000099182129 L 21.21000099182129 18.71000099182129 C 21.39931488037109 18.5222339630127 21.50580024719238 18.26663780212402 21.50580024719238 18 C 21.50580024719238 17.73336219787598 21.39931488037109 17.4777660369873 21.21000099182129 17.28999900817871 L 18.21000099182129 14.29000091552734 C 18.0222339630127 14.10068893432617 17.76663780212402 13.99420261383057 17.5 13.99420261383057 C 17.23336219787598 13.99420261383057 16.9777660369873 14.10068798065186 16.79000091552734 14.29000091552734 C 16.60068702697754 14.47776699066162 16.49420166015625 14.73336315155029 16.49420166015625 15.00000095367432 C 16.49420166015625 15.26663875579834 16.60068702697754 15.52223491668701 16.79000091552734 15.71000194549561 L 18.09000015258789 17 L 6.090000152587891 17 C 5.228373527526855 17.0167293548584 4.516410827636719 16.33163261413574 4.5 15.47000026702881 L 4.5 13 C 4.5 12.44771480560303 4.052284717559814 12 3.5 12 C 2.947715282440186 12 2.5 12.44771575927734 2.5 13 L 2.5 15.47000026702881 C 2.516499042510986 17.43616485595703 4.123838424682617 19.01663970947266 6.090000629425049 19 Z" fill="#ffffff" fill-rule="evenodd"/><path d="M 5.789999961853027 9.710000038146973 C 6.182122230529785 10.10212230682373 6.817877769470215 10.10212230682373 7.210000038146973 9.710000038146973 C 7.60212230682373 9.317877769470215 7.60212230682373 8.682122230529785 7.210000038146973 8.289999961853027 L 5.909999847412109 7 L 17.90999984741211 7 C 18.77162551879883 6.983270645141602 19.48358917236328 7.6683669090271 19.5 8.530000686645508 L 19.5 11 C 19.5 11.55228519439697 19.94771575927734 12 20.5 12 C 21.05228424072266 12 21.5 11.55228424072266 21.5 11 L 21.5 8.529999732971191 C 21.48349952697754 6.563836574554443 19.87616157531738 4.98336124420166 17.90999794006348 5 L 5.909999847412109 5 L 7.210000038146973 3.710000038146973 C 7.399312496185303 3.522233486175537 7.50579833984375 3.266637563705444 7.50579833984375 3 C 7.50579833984375 2.733362436294556 7.399312496185303 2.477766513824463 7.210000038146973 2.289999961853027 C 7.022233486175537 2.100687503814697 6.766637802124023 1.99420166015625 6.5 1.99420166015625 C 6.233362674713135 1.99420166015625 5.977766513824463 2.100687265396118 5.789999961853027 2.289999961853027 L 2.789999961853027 5.289999961853027 C 2.600687503814697 5.477766513824463 2.49420166015625 5.733362197875977 2.49420166015625 6 C 2.49420166015625 6.266637802124023 2.600687503814697 6.522233486175537 2.789999961853027 6.710000038146973 L 5.789999961853027 9.710000038146973 Z" fill="#ffffff" fill-rule="evenodd"/></g></g></g></svg>